<mxfile host="app.diagrams.net" agent="Mozilla/5.0 (Windows NT 10.0; Win64; x64) AppleWebKit/537.36 (KHTML, like Gecko) Chrome/139.0.0.0 Safari/537.36" version="28.1.0">
  <diagram id="hg9BtR01XWrUHQ8jTYTc" name="PÃ¡gina-2">
    <mxGraphModel dx="1869" dy="1704" grid="1" gridSize="10" guides="1" tooltips="1" connect="1" arrows="1" fold="1" page="1" pageScale="1" pageWidth="827" pageHeight="1169" math="0" shadow="0">
      <root>
        <mxCell id="0" />
        <mxCell id="1" parent="0" />
        <mxCell id="T86xnTHB9Ku3bZzqqBqZ-1" value="&lt;b&gt;NOTIFICATION SERVICE&lt;/b&gt;" style="rhombus;whiteSpace=wrap;html=1;fillColor=#dae8fc;strokeColor=#6c8ebf;rounded=1;" parent="1" vertex="1">
          <mxGeometry x="20" y="250" width="120" height="110" as="geometry" />
        </mxCell>
        <mxCell id="NaMgRcTJ13L3i34kNCv7-1" value="&lt;b&gt;AUTH&amp;nbsp;&lt;/b&gt;&lt;div&gt;&lt;b&gt;SERVICE&lt;/b&gt;&lt;/div&gt;" style="rhombus;whiteSpace=wrap;html=1;fillColor=#fff2cc;strokeColor=#d6b656;rounded=1;" parent="1" vertex="1">
          <mxGeometry x="140" y="250" width="120" height="110" as="geometry" />
        </mxCell>
        <mxCell id="q7x_eE0MAeQpjTvt3iLX-1" value="&lt;b&gt;USERS&lt;/b&gt;&lt;div&gt;&lt;b&gt;SERVICES&lt;/b&gt;&lt;/div&gt;" style="rhombus;whiteSpace=wrap;html=1;fillColor=#f8cecc;strokeColor=#b85450;rounded=1;" parent="1" vertex="1">
          <mxGeometry x="260" y="250" width="120" height="110" as="geometry" />
        </mxCell>
        <mxCell id="ghW7Ek74WlAvnrLgyaQ4-1" value="&lt;b&gt;GIGS&lt;/b&gt;&lt;div&gt;&lt;b&gt;SERVICES&lt;/b&gt;&lt;/div&gt;" style="rhombus;whiteSpace=wrap;html=1;fillColor=#d5e8d4;strokeColor=#82b366;rounded=1;" parent="1" vertex="1">
          <mxGeometry x="380" y="250" width="120" height="110" as="geometry" />
        </mxCell>
        <mxCell id="V7SjLpWC-sac9F-I_CFy-1" value="&lt;b&gt;CHAT&lt;/b&gt;&lt;div&gt;&lt;b&gt;SERVICES&lt;/b&gt;&lt;/div&gt;" style="rhombus;whiteSpace=wrap;html=1;fillColor=#b0e3e6;strokeColor=#0e8088;rounded=1;" parent="1" vertex="1">
          <mxGeometry x="500" y="250" width="120" height="110" as="geometry" />
        </mxCell>
        <mxCell id="-SYS8hJBx5JMOXUXN1c9-1" value="&lt;b&gt;ORDER&lt;/b&gt;&lt;div&gt;&lt;b&gt;SERVICES&lt;/b&gt;&lt;/div&gt;" style="rhombus;whiteSpace=wrap;html=1;fillColor=#fad7ac;strokeColor=#b46504;rounded=1;" parent="1" vertex="1">
          <mxGeometry x="620" y="250" width="120" height="110" as="geometry" />
        </mxCell>
        <mxCell id="-8uhs8sEBZxVNWRz4p3Z-1" value="&lt;b&gt;REVIEW&lt;/b&gt;&lt;div&gt;&lt;b&gt;SERVICES&lt;/b&gt;&lt;/div&gt;" style="rhombus;whiteSpace=wrap;html=1;fillColor=#fff2cc;gradientColor=#ffd966;strokeColor=#d6b656;rounded=1;" parent="1" vertex="1">
          <mxGeometry x="740" y="250" width="120" height="110" as="geometry" />
        </mxCell>
        <mxCell id="-8uhs8sEBZxVNWRz4p3Z-2" value="&lt;font style=&quot;font-size: 20px;&quot;&gt;&lt;b style=&quot;&quot;&gt;ELASTICSEARCH/KIBANA&lt;/b&gt;&lt;/font&gt;" style="rounded=0;whiteSpace=wrap;html=1;fillColor=#fa6800;strokeColor=#C73500;fontColor=#000000;" parent="1" vertex="1">
          <mxGeometry x="40" y="460" width="820" height="60" as="geometry" />
        </mxCell>
        <mxCell id="-8uhs8sEBZxVNWRz4p3Z-9" value="" style="endArrow=classic;html=1;rounded=1;exitX=0.259;exitY=-0.007;exitDx=0;exitDy=0;exitPerimeter=0;" parent="1" source="-8uhs8sEBZxVNWRz4p3Z-2" edge="1">
          <mxGeometry width="50" height="50" relative="1" as="geometry">
            <mxPoint x="249.99999999999994" y="455.99" as="sourcePoint" />
            <mxPoint x="252" y="320" as="targetPoint" />
          </mxGeometry>
        </mxCell>
        <mxCell id="-8uhs8sEBZxVNWRz4p3Z-10" value="" style="endArrow=classic;html=1;rounded=1;entryX=0.242;entryY=-0.06;entryDx=0;entryDy=0;entryPerimeter=0;" parent="1" target="-8uhs8sEBZxVNWRz4p3Z-2" edge="1">
          <mxGeometry width="50" height="50" relative="1" as="geometry">
            <mxPoint x="238" y="330" as="sourcePoint" />
            <mxPoint x="240.44000000000005" y="350.41999999999996" as="targetPoint" />
            <Array as="points" />
          </mxGeometry>
        </mxCell>
        <mxCell id="-8uhs8sEBZxVNWRz4p3Z-11" value="API GATEWAY" style="ellipse;whiteSpace=wrap;html=1;aspect=fixed;rounded=1;fillColor=#d5e8d4;strokeColor=#82b366;gradientColor=#97d077;" parent="1" vertex="1">
          <mxGeometry x="400" y="70" width="80" height="80" as="geometry" />
        </mxCell>
        <mxCell id="-8uhs8sEBZxVNWRz4p3Z-12" value="" style="endArrow=classic;startArrow=classic;html=1;rounded=1;entryX=0.5;entryY=1;entryDx=0;entryDy=0;" parent="1" target="-8uhs8sEBZxVNWRz4p3Z-11" edge="1">
          <mxGeometry width="50" height="50" relative="1" as="geometry">
            <mxPoint x="440" y="200" as="sourcePoint" />
            <mxPoint x="440" y="170" as="targetPoint" />
          </mxGeometry>
        </mxCell>
        <mxCell id="-8uhs8sEBZxVNWRz4p3Z-14" value="" style="image;html=1;image=img/lib/clip_art/people/Worker_Woman_128x128.png;rounded=1;" parent="1" vertex="1">
          <mxGeometry x="400" y="-80" width="80" height="80" as="geometry" />
        </mxCell>
        <mxCell id="-8uhs8sEBZxVNWRz4p3Z-15" value="" style="endArrow=classic;startArrow=classic;html=1;rounded=1;entryX=0.5;entryY=1;entryDx=0;entryDy=0;exitX=0.5;exitY=0;exitDx=0;exitDy=0;" parent="1" source="-8uhs8sEBZxVNWRz4p3Z-11" target="-8uhs8sEBZxVNWRz4p3Z-14" edge="1">
          <mxGeometry width="50" height="50" relative="1" as="geometry">
            <mxPoint x="390" y="90" as="sourcePoint" />
            <mxPoint x="440" y="40" as="targetPoint" />
          </mxGeometry>
        </mxCell>
        <mxCell id="-8uhs8sEBZxVNWRz4p3Z-17" value="" style="endArrow=classic;html=1;rounded=1;exitX=0;exitY=0.5;exitDx=0;exitDy=0;entryX=0;entryY=0.5;entryDx=0;entryDy=0;" parent="1" source="-8uhs8sEBZxVNWRz4p3Z-14" target="-8uhs8sEBZxVNWRz4p3Z-2" edge="1">
          <mxGeometry width="50" height="50" relative="1" as="geometry">
            <mxPoint x="295" y="-15" as="sourcePoint" />
            <mxPoint x="-80" y="490" as="targetPoint" />
            <Array as="points">
              <mxPoint x="345" y="-40" />
              <mxPoint x="290" y="-40" />
              <mxPoint x="240" y="-40" />
              <mxPoint x="140" y="-40" />
              <mxPoint x="-80" y="-40" />
              <mxPoint x="-80" y="490" />
            </Array>
          </mxGeometry>
        </mxCell>
        <mxCell id="-8uhs8sEBZxVNWRz4p3Z-18" value="&lt;b&gt;CLIENT&lt;/b&gt;" style="text;html=1;align=center;verticalAlign=middle;whiteSpace=wrap;rounded=0;" parent="1" vertex="1">
          <mxGeometry x="460" y="-60" width="60" height="30" as="geometry" />
        </mxCell>
        <mxCell id="-8uhs8sEBZxVNWRz4p3Z-22" value="" style="endArrow=none;html=1;rounded=1;" parent="1" edge="1">
          <mxGeometry width="50" height="50" relative="1" as="geometry">
            <mxPoint x="80" y="200" as="sourcePoint" />
            <mxPoint x="800" y="200" as="targetPoint" />
          </mxGeometry>
        </mxCell>
        <mxCell id="-8uhs8sEBZxVNWRz4p3Z-23" value="" style="endArrow=classic;html=1;rounded=1;entryX=0.5;entryY=0;entryDx=0;entryDy=0;" parent="1" target="T86xnTHB9Ku3bZzqqBqZ-1" edge="1">
          <mxGeometry width="50" height="50" relative="1" as="geometry">
            <mxPoint x="80" y="200" as="sourcePoint" />
            <mxPoint x="90" y="190" as="targetPoint" />
          </mxGeometry>
        </mxCell>
        <mxCell id="-8uhs8sEBZxVNWRz4p3Z-24" value="" style="endArrow=classic;html=1;rounded=1;entryX=0.5;entryY=0;entryDx=0;entryDy=0;" parent="1" target="NaMgRcTJ13L3i34kNCv7-1" edge="1">
          <mxGeometry width="50" height="50" relative="1" as="geometry">
            <mxPoint x="200.9" y="200" as="sourcePoint" />
            <mxPoint x="200.9" y="220" as="targetPoint" />
          </mxGeometry>
        </mxCell>
        <mxCell id="-8uhs8sEBZxVNWRz4p3Z-25" value="" style="endArrow=classic;html=1;rounded=1;entryX=0.5;entryY=0;entryDx=0;entryDy=0;" parent="1" target="q7x_eE0MAeQpjTvt3iLX-1" edge="1">
          <mxGeometry width="50" height="50" relative="1" as="geometry">
            <mxPoint x="319.5" y="200" as="sourcePoint" />
            <mxPoint x="319.5" y="220" as="targetPoint" />
          </mxGeometry>
        </mxCell>
        <mxCell id="-8uhs8sEBZxVNWRz4p3Z-26" value="" style="endArrow=classic;html=1;rounded=1;entryX=0.5;entryY=0;entryDx=0;entryDy=0;" parent="1" target="V7SjLpWC-sac9F-I_CFy-1" edge="1">
          <mxGeometry width="50" height="50" relative="1" as="geometry">
            <mxPoint x="559.5" y="200" as="sourcePoint" />
            <mxPoint x="559.5" y="220" as="targetPoint" />
          </mxGeometry>
        </mxCell>
        <mxCell id="-8uhs8sEBZxVNWRz4p3Z-27" value="" style="endArrow=classic;html=1;rounded=1;entryX=0.5;entryY=0;entryDx=0;entryDy=0;" parent="1" target="ghW7Ek74WlAvnrLgyaQ4-1" edge="1">
          <mxGeometry width="50" height="50" relative="1" as="geometry">
            <mxPoint x="439.5" y="200" as="sourcePoint" />
            <mxPoint x="439.5" y="220" as="targetPoint" />
          </mxGeometry>
        </mxCell>
        <mxCell id="-8uhs8sEBZxVNWRz4p3Z-28" value="" style="endArrow=classic;html=1;rounded=1;entryX=0.5;entryY=0;entryDx=0;entryDy=0;" parent="1" target="-SYS8hJBx5JMOXUXN1c9-1" edge="1">
          <mxGeometry width="50" height="50" relative="1" as="geometry">
            <mxPoint x="679.5" y="200" as="sourcePoint" />
            <mxPoint x="679.5" y="220" as="targetPoint" />
          </mxGeometry>
        </mxCell>
        <mxCell id="-8uhs8sEBZxVNWRz4p3Z-29" value="" style="endArrow=classic;html=1;rounded=1;entryX=0.5;entryY=0;entryDx=0;entryDy=0;" parent="1" target="-8uhs8sEBZxVNWRz4p3Z-1" edge="1">
          <mxGeometry width="50" height="50" relative="1" as="geometry">
            <mxPoint x="800" y="200" as="sourcePoint" />
            <mxPoint x="800" y="240" as="targetPoint" />
          </mxGeometry>
        </mxCell>
        <mxCell id="-8uhs8sEBZxVNWRz4p3Z-30" value="&lt;b&gt;HTTP/HTTPS&lt;/b&gt;" style="text;html=1;align=center;verticalAlign=middle;whiteSpace=wrap;rounded=0;" parent="1" vertex="1">
          <mxGeometry x="435" y="10" width="100" height="40" as="geometry" />
        </mxCell>
        <mxCell id="-8uhs8sEBZxVNWRz4p3Z-31" value="&lt;b&gt;&lt;font style=&quot;color: light-dark(rgb(0, 0, 0), rgb(255, 179, 102));&quot;&gt;HTTP/HTTPS&lt;/font&gt;&lt;/b&gt;" style="text;html=1;align=center;verticalAlign=middle;whiteSpace=wrap;rounded=0;" parent="1" vertex="1">
          <mxGeometry x="110" y="-40" width="100" height="40" as="geometry" />
        </mxCell>
        <mxCell id="-8uhs8sEBZxVNWRz4p3Z-32" value="" style="endArrow=none;html=1;rounded=1;entryX=-0.032;entryY=0.608;entryDx=0;entryDy=0;entryPerimeter=0;" parent="1" target="-8uhs8sEBZxVNWRz4p3Z-11" edge="1">
          <mxGeometry width="50" height="50" relative="1" as="geometry">
            <mxPoint x="-80" y="120" as="sourcePoint" />
            <mxPoint x="200.9" y="70" as="targetPoint" />
          </mxGeometry>
        </mxCell>
        <mxCell id="-8uhs8sEBZxVNWRz4p3Z-33" value="&lt;b&gt;&lt;font style=&quot;color: light-dark(rgb(0, 0, 0), rgb(255, 179, 102));&quot;&gt;HTTP/HTTPS&lt;/font&gt;&lt;/b&gt;" style="text;html=1;align=center;verticalAlign=middle;whiteSpace=wrap;rounded=0;" parent="1" vertex="1">
          <mxGeometry x="110" y="120" width="100" height="40" as="geometry" />
        </mxCell>
        <mxCell id="-8uhs8sEBZxVNWRz4p3Z-36" value="&lt;b&gt;&lt;font style=&quot;font-size: 10px; color: light-dark(rgb(0, 0, 0), rgb(77, 153, 0));&quot;&gt;HTTP/HTTPS&lt;/font&gt;&lt;/b&gt;" style="text;html=1;align=center;verticalAlign=middle;whiteSpace=wrap;rounded=0;" parent="1" vertex="1">
          <mxGeometry x="70" y="200" width="90" height="30" as="geometry" />
        </mxCell>
        <mxCell id="-8uhs8sEBZxVNWRz4p3Z-37" value="&lt;b&gt;&lt;font style=&quot;font-size: 10px; color: light-dark(rgb(0, 0, 0), rgb(77, 153, 0));&quot;&gt;HTTP/HTTPS&lt;/font&gt;&lt;/b&gt;" style="text;html=1;align=center;verticalAlign=middle;whiteSpace=wrap;rounded=0;" parent="1" vertex="1">
          <mxGeometry x="190" y="200" width="90" height="30" as="geometry" />
        </mxCell>
        <mxCell id="-8uhs8sEBZxVNWRz4p3Z-38" value="&lt;b&gt;&lt;font style=&quot;font-size: 10px; color: light-dark(rgb(0, 0, 0), rgb(77, 153, 0));&quot;&gt;HTTP/HTTPS&lt;/font&gt;&lt;/b&gt;" style="text;html=1;align=center;verticalAlign=middle;whiteSpace=wrap;rounded=0;" parent="1" vertex="1">
          <mxGeometry x="310" y="200" width="90" height="30" as="geometry" />
        </mxCell>
        <mxCell id="-8uhs8sEBZxVNWRz4p3Z-39" value="&lt;b&gt;&lt;font style=&quot;font-size: 10px; color: light-dark(rgb(0, 0, 0), rgb(77, 153, 0));&quot;&gt;HTTP/HTTPS&lt;/font&gt;&lt;/b&gt;" style="text;html=1;align=center;verticalAlign=middle;whiteSpace=wrap;rounded=0;" parent="1" vertex="1">
          <mxGeometry x="430" y="200" width="90" height="30" as="geometry" />
        </mxCell>
        <mxCell id="-8uhs8sEBZxVNWRz4p3Z-40" value="&lt;b&gt;&lt;font style=&quot;font-size: 10px; color: light-dark(rgb(0, 0, 0), rgb(77, 153, 0));&quot;&gt;HTTP/HTTPS&lt;/font&gt;&lt;/b&gt;" style="text;html=1;align=center;verticalAlign=middle;whiteSpace=wrap;rounded=0;" parent="1" vertex="1">
          <mxGeometry x="550" y="200" width="90" height="30" as="geometry" />
        </mxCell>
        <mxCell id="-8uhs8sEBZxVNWRz4p3Z-41" value="&lt;b&gt;&lt;font style=&quot;font-size: 10px; color: light-dark(rgb(0, 0, 0), rgb(77, 153, 0));&quot;&gt;HTTP/HTTPS&lt;/font&gt;&lt;/b&gt;" style="text;html=1;align=center;verticalAlign=middle;whiteSpace=wrap;rounded=0;" parent="1" vertex="1">
          <mxGeometry x="670" y="200" width="90" height="30" as="geometry" />
        </mxCell>
        <mxCell id="-8uhs8sEBZxVNWRz4p3Z-44" value="" style="endArrow=classic;html=1;rounded=1;exitX=0.259;exitY=-0.007;exitDx=0;exitDy=0;exitPerimeter=0;" parent="1" edge="1">
          <mxGeometry width="50" height="50" relative="1" as="geometry">
            <mxPoint x="489.5" y="460" as="sourcePoint" />
            <mxPoint x="489.5" y="320" as="targetPoint" />
          </mxGeometry>
        </mxCell>
        <mxCell id="-8uhs8sEBZxVNWRz4p3Z-45" value="" style="endArrow=classic;html=1;rounded=1;entryX=0.242;entryY=-0.06;entryDx=0;entryDy=0;entryPerimeter=0;" parent="1" edge="1">
          <mxGeometry width="50" height="50" relative="1" as="geometry">
            <mxPoint x="474.5" y="334" as="sourcePoint" />
            <mxPoint x="474.5" y="460" as="targetPoint" />
            <Array as="points" />
          </mxGeometry>
        </mxCell>
        <mxCell id="-8uhs8sEBZxVNWRz4p3Z-46" value="" style="endArrow=classic;html=1;rounded=1;entryX=0.242;entryY=-0.06;entryDx=0;entryDy=0;entryPerimeter=0;exitX=0.838;exitY=0.66;exitDx=0;exitDy=0;exitPerimeter=0;" parent="1" source="T86xnTHB9Ku3bZzqqBqZ-1" edge="1">
          <mxGeometry width="50" height="50" relative="1" as="geometry">
            <mxPoint x="120" y="334" as="sourcePoint" />
            <mxPoint x="120" y="460" as="targetPoint" />
            <Array as="points" />
          </mxGeometry>
        </mxCell>
        <mxCell id="-8uhs8sEBZxVNWRz4p3Z-47" value="" style="endArrow=classic;html=1;rounded=1;entryX=0.242;entryY=-0.06;entryDx=0;entryDy=0;entryPerimeter=0;exitX=0.838;exitY=0.66;exitDx=0;exitDy=0;exitPerimeter=0;" parent="1" edge="1">
          <mxGeometry width="50" height="50" relative="1" as="geometry">
            <mxPoint x="361" y="323" as="sourcePoint" />
            <mxPoint x="360" y="460" as="targetPoint" />
            <Array as="points" />
          </mxGeometry>
        </mxCell>
        <mxCell id="-8uhs8sEBZxVNWRz4p3Z-48" value="" style="endArrow=classic;html=1;rounded=1;entryX=0.242;entryY=-0.06;entryDx=0;entryDy=0;entryPerimeter=0;exitX=0.838;exitY=0.66;exitDx=0;exitDy=0;exitPerimeter=0;" parent="1" edge="1">
          <mxGeometry width="50" height="50" relative="1" as="geometry">
            <mxPoint x="601" y="323" as="sourcePoint" />
            <mxPoint x="600" y="460" as="targetPoint" />
            <Array as="points" />
          </mxGeometry>
        </mxCell>
        <mxCell id="-8uhs8sEBZxVNWRz4p3Z-49" value="" style="endArrow=classic;html=1;rounded=1;entryX=0.242;entryY=-0.06;entryDx=0;entryDy=0;entryPerimeter=0;exitX=0.838;exitY=0.66;exitDx=0;exitDy=0;exitPerimeter=0;" parent="1" edge="1">
          <mxGeometry width="50" height="50" relative="1" as="geometry">
            <mxPoint x="721" y="323" as="sourcePoint" />
            <mxPoint x="720" y="460" as="targetPoint" />
            <Array as="points" />
          </mxGeometry>
        </mxCell>
        <mxCell id="-8uhs8sEBZxVNWRz4p3Z-50" value="" style="endArrow=classic;html=1;rounded=1;entryX=0.242;entryY=-0.06;entryDx=0;entryDy=0;entryPerimeter=0;exitX=0.838;exitY=0.66;exitDx=0;exitDy=0;exitPerimeter=0;" parent="1" edge="1">
          <mxGeometry width="50" height="50" relative="1" as="geometry">
            <mxPoint x="841" y="323" as="sourcePoint" />
            <mxPoint x="840" y="460" as="targetPoint" />
            <Array as="points" />
          </mxGeometry>
        </mxCell>
        <mxCell id="-8uhs8sEBZxVNWRz4p3Z-51" value="&lt;span style=&quot;font-size: 10px;&quot;&gt;&lt;b style=&quot;&quot;&gt;&lt;font style=&quot;color: light-dark(rgb(0, 0, 0), rgb(204, 0, 0));&quot;&gt;SOCKET.IO&lt;/font&gt;&lt;/b&gt;&lt;/span&gt;" style="text;html=1;align=center;verticalAlign=middle;whiteSpace=wrap;rounded=0;" parent="1" vertex="1">
          <mxGeometry x="550" y="215" width="90" height="30" as="geometry" />
        </mxCell>
        <mxCell id="-8uhs8sEBZxVNWRz4p3Z-52" style="edgeStyle=orthogonalEdgeStyle;rounded=1;orthogonalLoop=1;jettySize=auto;html=1;exitX=0;exitY=0.75;exitDx=0;exitDy=0;entryX=0;entryY=1;entryDx=0;entryDy=0;fontFamily=Helvetica;fontSize=12;fontColor=default;" parent="1" source="-8uhs8sEBZxVNWRz4p3Z-41" target="-8uhs8sEBZxVNWRz4p3Z-41" edge="1">
          <mxGeometry relative="1" as="geometry" />
        </mxCell>
        <mxCell id="-8uhs8sEBZxVNWRz4p3Z-53" value="&lt;span style=&quot;font-size: 10px;&quot;&gt;&lt;b style=&quot;&quot;&gt;&lt;font style=&quot;color: light-dark(rgb(0, 0, 0), rgb(204, 0, 0));&quot;&gt;SOCKET.IO&lt;/font&gt;&lt;/b&gt;&lt;/span&gt;" style="text;html=1;align=center;verticalAlign=middle;whiteSpace=wrap;rounded=0;" parent="1" vertex="1">
          <mxGeometry x="670" y="215" width="90" height="30" as="geometry" />
        </mxCell>
        <mxCell id="-8uhs8sEBZxVNWRz4p3Z-54" value="&lt;b style=&quot;&quot;&gt;&lt;font style=&quot;color: light-dark(rgb(0, 0, 0), rgb(204, 0, 0));&quot;&gt;SOCKET.IO&lt;/font&gt;&lt;/b&gt;" style="text;html=1;align=center;verticalAlign=middle;whiteSpace=wrap;rounded=0;" parent="1" vertex="1">
          <mxGeometry x="440" y="30" width="90" height="30" as="geometry" />
        </mxCell>
        <mxCell id="-8uhs8sEBZxVNWRz4p3Z-55" value="&lt;b&gt;HTTP/HTTPS&lt;/b&gt;" style="text;html=1;align=center;verticalAlign=middle;whiteSpace=wrap;rounded=0;" parent="1" vertex="1">
          <mxGeometry x="440" y="140" width="100" height="40" as="geometry" />
        </mxCell>
        <mxCell id="-8uhs8sEBZxVNWRz4p3Z-56" value="&lt;b style=&quot;&quot;&gt;&lt;font style=&quot;color: light-dark(rgb(0, 0, 0), rgb(204, 0, 0));&quot;&gt;SOCKET.IO&lt;/font&gt;&lt;/b&gt;" style="text;html=1;align=center;verticalAlign=middle;whiteSpace=wrap;rounded=0;" parent="1" vertex="1">
          <mxGeometry x="445" y="160" width="90" height="30" as="geometry" />
        </mxCell>
        <mxCell id="-8uhs8sEBZxVNWRz4p3Z-57" value="&lt;b&gt;&lt;font style=&quot;font-size: 10px; color: light-dark(rgb(0, 0, 0), rgb(255, 128, 0));&quot;&gt;HTTP/HTTPS&lt;/font&gt;&lt;/b&gt;" style="text;html=1;align=center;verticalAlign=middle;whiteSpace=wrap;rounded=0;" parent="1" vertex="1">
          <mxGeometry x="110" y="420" width="90" height="30" as="geometry" />
        </mxCell>
        <mxCell id="-8uhs8sEBZxVNWRz4p3Z-58" value="&lt;b&gt;&lt;font style=&quot;font-size: 10px; color: light-dark(rgb(0, 0, 0), rgb(255, 128, 0));&quot;&gt;HTTP/HTTPS&lt;/font&gt;&lt;/b&gt;" style="text;html=1;align=center;verticalAlign=middle;whiteSpace=wrap;rounded=0;" parent="1" vertex="1">
          <mxGeometry x="240" y="420" width="90" height="30" as="geometry" />
        </mxCell>
        <mxCell id="-8uhs8sEBZxVNWRz4p3Z-59" value="&lt;b&gt;&lt;font style=&quot;font-size: 10px; color: light-dark(rgb(0, 0, 0), rgb(255, 128, 0));&quot;&gt;HTTP/HTTPS&lt;/font&gt;&lt;/b&gt;" style="text;html=1;align=center;verticalAlign=middle;whiteSpace=wrap;rounded=0;" parent="1" vertex="1">
          <mxGeometry x="350" y="420" width="90" height="30" as="geometry" />
        </mxCell>
        <mxCell id="-8uhs8sEBZxVNWRz4p3Z-60" value="&lt;b&gt;&lt;font style=&quot;font-size: 10px; color: light-dark(rgb(0, 0, 0), rgb(255, 128, 0));&quot;&gt;HTTP/HTTPS&lt;/font&gt;&lt;/b&gt;" style="text;html=1;align=center;verticalAlign=middle;whiteSpace=wrap;rounded=0;" parent="1" vertex="1">
          <mxGeometry x="480" y="420" width="90" height="30" as="geometry" />
        </mxCell>
        <mxCell id="-8uhs8sEBZxVNWRz4p3Z-61" value="&lt;b&gt;&lt;font style=&quot;font-size: 10px; color: light-dark(rgb(0, 0, 0), rgb(255, 128, 0));&quot;&gt;HTTP/HTTPS&lt;/font&gt;&lt;/b&gt;" style="text;html=1;align=center;verticalAlign=middle;whiteSpace=wrap;rounded=0;" parent="1" vertex="1">
          <mxGeometry x="590" y="420" width="90" height="30" as="geometry" />
        </mxCell>
        <mxCell id="-8uhs8sEBZxVNWRz4p3Z-62" value="&lt;b&gt;&lt;font style=&quot;font-size: 10px; color: light-dark(rgb(0, 0, 0), rgb(255, 128, 0));&quot;&gt;HTTP/HTTPS&lt;/font&gt;&lt;/b&gt;" style="text;html=1;align=center;verticalAlign=middle;whiteSpace=wrap;rounded=0;" parent="1" vertex="1">
          <mxGeometry x="710" y="420" width="90" height="30" as="geometry" />
        </mxCell>
        <mxCell id="-8uhs8sEBZxVNWRz4p3Z-63" value="&lt;b&gt;&lt;font style=&quot;font-size: 10px; color: light-dark(rgb(0, 0, 0), rgb(255, 128, 0));&quot;&gt;HTTP/HTTPS&lt;/font&gt;&lt;/b&gt;" style="text;html=1;align=center;verticalAlign=middle;whiteSpace=wrap;rounded=0;" parent="1" vertex="1">
          <mxGeometry x="830" y="420" width="90" height="30" as="geometry" />
        </mxCell>
        <mxCell id="6lzwClU7MQIf-u7hIdwC-4" value="" style="verticalLabelPosition=bottom;aspect=fixed;html=1;shape=mxgraph.salesforce.data;rounded=0;align=center;verticalAlign=middle;fontFamily=Helvetica;fontSize=12;fontColor=default;fillColor=none;gradientColor=none;" parent="1" vertex="1">
          <mxGeometry x="150" y="384.69" width="20" height="24.69" as="geometry" />
        </mxCell>
        <mxCell id="6lzwClU7MQIf-u7hIdwC-11" value="" style="shape=image;imageAspect=0;aspect=fixed;verticalLabelPosition=bottom;verticalAlign=top;rounded=0;align=center;fontFamily=Helvetica;fontSize=12;fontColor=default;fillColor=none;gradientColor=none;image=data:image/png,iVBORw0KGgoAAAANSUhEUgAAAgAAAAIACAMAAADDpiTIAAACkVBMVEVMaXH/ZAD/ZgD/YAD/ZAD/ZAD/YgD/aAD/ZgD/ZgD/YgBMaXH/ZgD/VAD/YAD/ZAD/ZAD/XgD/ZAD/ZgD/ZAD/aAD/YgD/WgD/ZAD/ZAD/ZAD/YgD/ZgD/ZAD/gQD/ZgD/YgD/YAD/ZgD/ZAD/ZgD/ZgD/ZAD/ZgD/YAD/ZAD/ZAD/ZAD/ZgD/ZgD/ZgD/ZAD/ZAD/aAD/XAD/ZgD/agD/aAD/ZAD/ZgD/ZgD/ZAD/ZgD/ZAD/bAD/ZgD/VAD/ZgD/YgD/ZgD/ZAD/ZgD/ZgD/ZgD/YgD/ZAD/ZgD/ZAD/ZAD/VAD/ZgD/ZAD/ZgD/ZAD/QAD/ZAD/YgD/ZAD/ZAD/ZAD/ZgD/ZAD/YgD/ZgD/ZgD/ZgD/ZgD/ZgD/ZAD/ZAD/ZAD/ZAD/ZgD/ZAD/ZAD/ZgD/ZAD/ZAD/ZAD/ZgD/ZgD/ZAD/ZgD/ZgD/ZAD/ZAD/ZgD/ZgD/ZAD/YAD/ZgD/ZAD/ZgD/ZAD/ZAD/ZgD/ZgD/ZAD/ZAD/ZAD/ZgD/ZAD/YgD/ZAD/ZAD/ZgD/ZAD/ZgD/ZgD/ZAD/ZgD/ZAD/ZgD/ZgD/ZgD/ZgD/ZgD/ZAD/ZgD/ZgD/ZAD/ZgD/ZAD/ZAD/ZAD/ZAD/ZgD/ZgD/ZgD/ZAD/ZgD/ZAD/ZgD/ZgD/ZgD/ZAD/ZAD/ZgD/ZAD/ZAD/ZgD/ZAD/ZAD/ZAD/ZAD/ZgD/ZgD/ZgD/ZgD/ZgD/ZAD/ZgD/ZgD/ZAD/ZgD/ZgD/ZAD/ZAD/ZgD/ZgD/ZAD/ZAD/ZAD/ZAD/ZAD/ZgD/ZgD/ZgD/YgD/ZAD/ZgD/ZgD/ZgD/ZgD/ZgD/ZAD/ZAD/ZAD/ZgD/ZgD/ZAD/ZgD/ZgD/ZAD/ZgD/ZAD/ZgD/ZAD/ZAD/ZgD/ZgD/ZgD/ZAAWuWYOAAAA2XRSTlMAXoEYm0ASGhjfGgAKCAhSKhLr+TIQLA5Q+UI6PvUC5x4QHjTTPBz9HGpEFr0E8f1YIApcDBYoSuvFek4GMgJIDO2RLCJsNscoYtkGWtUk7QTRJredLkYwMBQqNmY49+84PPcgTDR+q6HZ8/NQTIEmw2BIFMunhVax47dUucNyhSKDPqNk1+mps+WtQm7JaHyXz8EuXInfi5n170oOr1avQJOfUtdGj1qZ43jdoV5Ug+HlzW6bdrXp1dvLjZXJYJG1lSSHavuf4WS7bDp4x7+rdM+5zYuPdHxwOFln4AAAAAlwSFlzAAALEwAACxMBAJqcGAAAClpJREFUeNrt3elzVuUZwOGjUSJMhnwhQIBhh4wKjUS2IkZsUBRUZFTE4BpcwR2XqoMVRVxHp7ajQFWmOnUdP7gRrLUdW2tX7TKl7flvOp1+btie5+S8575+f8E993PNczjvm5CiGLGuew7tv293ecztm3tgz8dbitHoxh/cv+OhY5/82s8WvLHi/CJ0s9+7u0zSwVfmVDv54nu+f22SyZffekfY47/qy+4yXQeurG7ylY8uTzj5wbNCHv+kB7aVSeu9f3U1ky/c9W7ayctvpsU7/ytmlMnrvqiKycesST95+dbCYOc/eajM0efT88t9N8vk384Kdf4rykz9PffkG3NN/vLsQOf/SJmtr/NOPrg12+Rzx4c5/5uG8gEo/51z8lkPZZx8f5TzbxvOuMWyZ0q+yafvyDl5eXMQALdk3WI5Y2W2yR/NO3nPxBDnP9ibd43lebkm71ifefKnXQC1vgJ25p68nBrg/AeybzHXFTBmb/bJXwoA4FB+AHPzTH51/snLRc0HMLaCNbZnmfxABZN/3Pjzn1jBFsvnc0w+vruCyRf4EDhFf8jy9UUVk/dMajqA16pY477WfAf4b/OaDuC+StbYkWHyTyqZvLPpAGZUssalGSZ/upLJT234+S/srWSNOb4P+KKSye9s+hdBlWyxzPGjQe9XMvmXDQfQXg2AE1r0A4yyfAeAFP0YAAAACAzgTAAAACAwgLcBiA3gIgAAACAwgDMAAAAAAACICuB1AAAAIDCABwEAAACPAACiAngEAAAACAygEwAAAAgM4E0AYgOYDAAAAAQGcDsAAAAQGMBZAAAAAAAARAVwBwAAABAYwI0AxAawDAAAAAgM4CcAAABAYAD3AhAbwDkAAABAYAA/AwAAAAID2AhAbACnAQAAAAAAAAAAIQE8B0BsAFMAAAAAjwAAAAAgJICTAYgN4HEAAAAgMIBpAAAAQGAANwAQG8A8AAAAIDCAqQAAAEBgAH8CIDaAawAAAIDAAK4HAAAAAgPYDEBsAOcDAAAAgQHMAQAAAAIDuAmA2AAmAAAAAIEBnA0AAAAEBrAJgNgArgQAAAACA/gRAAAAEBjAFQDEBjAAAAAABAYwEQAAAPAIAAAAAEICGAQAAAAAACAqgAsAAACAwACWAhAbwF0AAABAYACXAAAAAIEB/BqA2ABWAwAAAIEBPAYAAAB4BAAQFcAiAAAAIDCALQAAAEBgALMBiA1gJgAAABAYwHwAAAAgMIB2AGIDGAcAAAB4BAAAAAAhAbQBEBvAKQAAAEBgAEsAAACAwABOByA2gKsAAACAwAC2AwAAAIEBjAEgNoAuAAAAIDCAWQAAAIBHAABRAUwCAAAAAgN4FQAAAAgMYDEAsQGsAgAAAAID6AAAAAACA+gDIDaA8QAAAEBgACsBAACAwADWAeAGAAAAAKICuBQAAAAIDGAhALEBTAcAAAACA+gHAAAAAgMoAAAAAAAACAqgFwAAAAgMoAcAAAAAAICoAH4LgNfA5A1XMvkeAFKU4+8FVDP5GwCkaEL6yedXM/nDDQcwrpo1dqaf/MZqJv+hGyBFJ6Wf/MtqJh9aB0CClqef/JlqJi/P8QhI0ZTUgy+raPDye26AFP0t8dz9a6sCsP5VAFK0K+3c95SV9TkAKbpudtJ3wPXVAei5AYAUbUj4yyHj55YVtn4mACm6P9nQiw+UlTa3HYAkn6ksSjPzlifLihveDECK9p2XYuS/fqesvp0AJGnt5OP9D+OWXVyOSmM7AUjT3TvP2PS//zVufF/HqsWTumZ1bb/q9CWntI9rnz9zy6LVj62+5K6lFwwOTBy44spNZ0+46fzN118zdd4N0x6f8vqpdy64thy19h54cddZJ9e9qQPjOuoNQNm77cQBAIJ38AMAgvfZ29MBiN23swCI3dil9fk6WKPRtilugNjtWw1A8DfCSQDEbkE/ALG7EIDYvdwPQOzOBCB2LwEQu95JAHgGABC4pwCI3VoAYrccgNj19AMQuzEAxK4dAAAAAAAAAAAAAAAAAAAAAAAAAAAAAAAAQAAIAAEgAASAABAAAkAACAABIAAEgAAQAAJAAAgAASAABIAAEAACQAAIAAEgAASAABAAAkAACAABIAAEgAAQAAJAAAgAASAABIAAEAACQAAIAAEgAASAABAAAkAACAABIAAEgAAQAAJAAAgAASAABIAAEAACQEcCYJz1HFt737/7L7868aja8/R9H47KrG1ugLT1frFiYnFsrTztp79zA7R2Y/94SnFcbXpgqxugZXvmhUuL4277oW7/CGzJrvtzX5Gkmbf2ANB6bVhSJGvjVgBarcv6ioQNfghAa/VOf5G0JRsAaKVeKVK36ufeAlro/i/S1zbsBmiVDq7KAKCYMwRAa3Tu/CJLDwLQGn1QZOoWAFqhuf25AMweAqAFurfI1gMA1L/v5jv/om8YgNo3JyOA4gWfA9S9sTnPv9je6waoef/ICqDYAUDNm5oXwKcA1Lvlec+/uACAend5ZgDFXgBq3am5ARwEoNZ15gZwGQC1bl5uAJ8AUOsuyQ3g5lEE4PcCDt/23AB2+SSw1o3JDeAEjwAAAAAAAAAAAAAAAAAAAAAAAAAAAAAAAAAAAAAAAAAAAAAAAAAAAAAAAAAAAAAAAAAAAAAAAAAAAAAAAAAAAAAAAAAAAAAAAAAAAAAAAAAAAAAAAAAAAAAAAAAAAAAAAAAAAAAAAAAAQAAIAP3fZucG8BUAtW5zbgA7Aah1k3MDuByAWpf9j0Y9DECt25kbwAYAat2BzOc/vhuAWtfdlxdAZwlAvbs9L4CvAah5J+UFsByAmpf3r0fPKwGoe2fkBPAEALVv7PR85z9QAhD6s6CHAWiBdq/Mdf7XlAC0QityAfgIgJZoaEKe8/9XCUCLvAq25zj/N0sAWqWLO9Kf/4ShUQcwzskeaQsWJ38DXF7N5G1ugCQ9uSXt+W/cVtHgHgGJOndayvN/sbcEoMXq+WWy41/3bHVjA5Cul85J8zMgzz9UAtCafdTZf7zH/+p7w5WODEDaZuy5d92xn/6YC1/bW/HAXgOTt+3ZT898brDr6I6+/exlv7/zm1GY1mtg8DwCAAAAAAAAAAAAAAAAAAAAAAAAAAAAAAAAASAABIAAEAACQAAIAAEgAASAABAAAkAACAABIAAEgAAQAAJAAAgAASAABIAAEAACQAAIAAEgAASAABAAAkAACAABIAAEgAAQAAJAAAgAASAABIAAEAACQAAIAAEgAASAABAAAkAACAABIAAEgAAQAAJAAAgAAaDDA9huPc2vbwQA/dbT+LYWI7XVgprebSMCWGNBTe/bEQH8woKa3m9GBDDZgprenBEB9HXbULObUYzcE1YU+QlQFANW1Oi2dR0GQPGUJTW5mw93/kXbkC01t90dhwVQ/NOaGlvPycURtMOimtqjR3L+xfaDNtXMniiOrK5v7KqJ7S+OuHdsq3l9VRxFV2+zsGa1ZrA4qtputbMGtfWr4qib8PWwxTWj4UOnF8fUxPP2X2d9Ld3utWvemjbSGf8H/rRWlvwoJc4AAAAASUVORK5CYII=;" parent="1" vertex="1">
          <mxGeometry x="200" y="384.69" width="24" height="24" as="geometry" />
        </mxCell>
        <mxCell id="6lzwClU7MQIf-u7hIdwC-12" value="&lt;font style=&quot;font-size: 9px;&quot;&gt;&lt;b&gt;MYSQL&lt;/b&gt;&lt;/font&gt;" style="text;html=1;align=center;verticalAlign=middle;whiteSpace=wrap;rounded=0;fontFamily=Helvetica;fontSize=12;fontColor=default;" parent="1" vertex="1">
          <mxGeometry x="130" y="358" width="60" height="30" as="geometry" />
        </mxCell>
        <mxCell id="6lzwClU7MQIf-u7hIdwC-13" value="&lt;font style=&quot;font-size: 9px;&quot;&gt;&lt;b&gt;RABBITMQ&lt;/b&gt;&lt;/font&gt;" style="text;html=1;align=center;verticalAlign=middle;whiteSpace=wrap;rounded=0;fontFamily=Helvetica;fontSize=12;fontColor=default;" parent="1" vertex="1">
          <mxGeometry x="180" y="360" width="60" height="25.31" as="geometry" />
        </mxCell>
        <mxCell id="6lzwClU7MQIf-u7hIdwC-14" value="" style="shape=image;imageAspect=0;aspect=fixed;verticalLabelPosition=bottom;verticalAlign=top;rounded=0;align=center;fontFamily=Helvetica;fontSize=12;fontColor=default;fillColor=none;gradientColor=none;image=data:image/png,iVBORw0KGgoAAAANSUhEUgAAAgAAAAIACAMAAADDpiTIAAACkVBMVEVMaXH/ZAD/ZgD/YAD/ZAD/ZAD/YgD/aAD/ZgD/ZgD/YgBMaXH/ZgD/VAD/YAD/ZAD/ZAD/XgD/ZAD/ZgD/ZAD/aAD/YgD/WgD/ZAD/ZAD/ZAD/YgD/ZgD/ZAD/gQD/ZgD/YgD/YAD/ZgD/ZAD/ZgD/ZgD/ZAD/ZgD/YAD/ZAD/ZAD/ZAD/ZgD/ZgD/ZgD/ZAD/ZAD/aAD/XAD/ZgD/agD/aAD/ZAD/ZgD/ZgD/ZAD/ZgD/ZAD/bAD/ZgD/VAD/ZgD/YgD/ZgD/ZAD/ZgD/ZgD/ZgD/YgD/ZAD/ZgD/ZAD/ZAD/VAD/ZgD/ZAD/ZgD/ZAD/QAD/ZAD/YgD/ZAD/ZAD/ZAD/ZgD/ZAD/YgD/ZgD/ZgD/ZgD/ZgD/ZgD/ZAD/ZAD/ZAD/ZAD/ZgD/ZAD/ZAD/ZgD/ZAD/ZAD/ZAD/ZgD/ZgD/ZAD/ZgD/ZgD/ZAD/ZAD/ZgD/ZgD/ZAD/YAD/ZgD/ZAD/ZgD/ZAD/ZAD/ZgD/ZgD/ZAD/ZAD/ZAD/ZgD/ZAD/YgD/ZAD/ZAD/ZgD/ZAD/ZgD/ZgD/ZAD/ZgD/ZAD/ZgD/ZgD/ZgD/ZgD/ZgD/ZAD/ZgD/ZgD/ZAD/ZgD/ZAD/ZAD/ZAD/ZAD/ZgD/ZgD/ZgD/ZAD/ZgD/ZAD/ZgD/ZgD/ZgD/ZAD/ZAD/ZgD/ZAD/ZAD/ZgD/ZAD/ZAD/ZAD/ZAD/ZgD/ZgD/ZgD/ZgD/ZgD/ZAD/ZgD/ZgD/ZAD/ZgD/ZgD/ZAD/ZAD/ZgD/ZgD/ZAD/ZAD/ZAD/ZAD/ZAD/ZgD/ZgD/ZgD/YgD/ZAD/ZgD/ZgD/ZgD/ZgD/ZgD/ZAD/ZAD/ZAD/ZgD/ZgD/ZAD/ZgD/ZgD/ZAD/ZgD/ZAD/ZgD/ZAD/ZAD/ZgD/ZgD/ZgD/ZAAWuWYOAAAA2XRSTlMAXoEYm0ASGhjfGgAKCAhSKhLr+TIQLA5Q+UI6PvUC5x4QHjTTPBz9HGpEFr0E8f1YIApcDBYoSuvFek4GMgJIDO2RLCJsNscoYtkGWtUk7QTRJredLkYwMBQqNmY49+84PPcgTDR+q6HZ8/NQTIEmw2BIFMunhVax47dUucNyhSKDPqNk1+mps+WtQm7JaHyXz8EuXInfi5n170oOr1avQJOfUtdGj1qZ43jdoV5Ug+HlzW6bdrXp1dvLjZXJYJG1lSSHavuf4WS7bDp4x7+rdM+5zYuPdHxwOFln4AAAAAlwSFlzAAALEwAACxMBAJqcGAAAClpJREFUeNrt3elzVuUZwOGjUSJMhnwhQIBhh4wKjUS2IkZsUBRUZFTE4BpcwR2XqoMVRVxHp7ajQFWmOnUdP7gRrLUdW2tX7TKl7flvOp1+btie5+S8575+f8E993PNczjvm5CiGLGuew7tv293ecztm3tgz8dbitHoxh/cv+OhY5/82s8WvLHi/CJ0s9+7u0zSwVfmVDv54nu+f22SyZffekfY47/qy+4yXQeurG7ylY8uTzj5wbNCHv+kB7aVSeu9f3U1ky/c9W7ayctvpsU7/ytmlMnrvqiKycesST95+dbCYOc/eajM0efT88t9N8vk384Kdf4rykz9PffkG3NN/vLsQOf/SJmtr/NOPrg12+Rzx4c5/5uG8gEo/51z8lkPZZx8f5TzbxvOuMWyZ0q+yafvyDl5eXMQALdk3WI5Y2W2yR/NO3nPxBDnP9ibd43lebkm71ifefKnXQC1vgJ25p68nBrg/AeybzHXFTBmb/bJXwoA4FB+AHPzTH51/snLRc0HMLaCNbZnmfxABZN/3Pjzn1jBFsvnc0w+vruCyRf4EDhFf8jy9UUVk/dMajqA16pY477WfAf4b/OaDuC+StbYkWHyTyqZvLPpAGZUssalGSZ/upLJT234+S/srWSNOb4P+KKSye9s+hdBlWyxzPGjQe9XMvmXDQfQXg2AE1r0A4yyfAeAFP0YAAAACAzgTAAAACAwgLcBiA3gIgAAACAwgDMAAAAAAACICuB1AAAAIDCABwEAAACPAACiAngEAAAACAygEwAAAAgM4E0AYgOYDAAAAAQGcDsAAAAQGMBZAAAAAAAARAVwBwAAABAYwI0AxAawDAAAAAgM4CcAAABAYAD3AhAbwDkAAABAYAA/AwAAAAID2AhAbACnAQAAAAAAAAAAIQE8B0BsAFMAAAAAjwAAAAAgJICTAYgN4HEAAAAgMIBpAAAAQGAANwAQG8A8AAAAIDCAqQAAAEBgAH8CIDaAawAAAIDAAK4HAAAAAgPYDEBsAOcDAAAAgQHMAQAAAAIDuAmA2AAmAAAAAIEBnA0AAAAEBrAJgNgArgQAAAACA/gRAAAAEBjAFQDEBjAAAAAABAYwEQAAAPAIAAAAAEICGAQAAAAAACAqgAsAAACAwACWAhAbwF0AAABAYACXAAAAAIEB/BqA2ABWAwAAAIEBPAYAAAB4BAAQFcAiAAAAIDCALQAAAEBgALMBiA1gJgAAABAYwHwAAAAgMIB2AGIDGAcAAAB4BAAAAAAhAbQBEBvAKQAAAEBgAEsAAACAwABOByA2gKsAAACAwAC2AwAAAIEBjAEgNoAuAAAAIDCAWQAAAIBHAABRAUwCAAAAAgN4FQAAAAgMYDEAsQGsAgAAAAID6AAAAAACA+gDIDaA8QAAAEBgACsBAACAwADWAeAGAAAAAKICuBQAAAAIDGAhALEBTAcAAAACA+gHAAAAAgMoAAAAAAAACAqgFwAAAAgMoAcAAAAAAICoAH4LgNfA5A1XMvkeAFKU4+8FVDP5GwCkaEL6yedXM/nDDQcwrpo1dqaf/MZqJv+hGyBFJ6Wf/MtqJh9aB0CClqef/JlqJi/P8QhI0ZTUgy+raPDye26AFP0t8dz9a6sCsP5VAFK0K+3c95SV9TkAKbpudtJ3wPXVAei5AYAUbUj4yyHj55YVtn4mACm6P9nQiw+UlTa3HYAkn6ksSjPzlifLihveDECK9p2XYuS/fqesvp0AJGnt5OP9D+OWXVyOSmM7AUjT3TvP2PS//zVufF/HqsWTumZ1bb/q9CWntI9rnz9zy6LVj62+5K6lFwwOTBy44spNZ0+46fzN118zdd4N0x6f8vqpdy64thy19h54cddZJ9e9qQPjOuoNQNm77cQBAIJ38AMAgvfZ29MBiN23swCI3dil9fk6WKPRtilugNjtWw1A8DfCSQDEbkE/ALG7EIDYvdwPQOzOBCB2LwEQu95JAHgGABC4pwCI3VoAYrccgNj19AMQuzEAxK4dAAAAAAAAAAAAAAAAAAAAAAAAAAAAAAAAQAAIAAEgAASAABAAAkAACAABIAAEgAAQAAJAAAgAASAABIAAEAACQAAIAAEgAASAABAAAkAACAABIAAEgAAQAAJAAAgAASAABIAAEAACQAAIAAEgAASAABAAAkAACAABIAAEgAAQAAJAAAgAASAABIAAEAACQEcCYJz1HFt737/7L7868aja8/R9H47KrG1ugLT1frFiYnFsrTztp79zA7R2Y/94SnFcbXpgqxugZXvmhUuL4277oW7/CGzJrvtzX5Gkmbf2ANB6bVhSJGvjVgBarcv6ioQNfghAa/VOf5G0JRsAaKVeKVK36ufeAlro/i/S1zbsBmiVDq7KAKCYMwRAa3Tu/CJLDwLQGn1QZOoWAFqhuf25AMweAqAFurfI1gMA1L/v5jv/om8YgNo3JyOA4gWfA9S9sTnPv9je6waoef/ICqDYAUDNm5oXwKcA1Lvlec+/uACAend5ZgDFXgBq3am5ARwEoNZ15gZwGQC1bl5uAJ8AUOsuyQ3g5lEE4PcCDt/23AB2+SSw1o3JDeAEjwAAAAAAAAAAAAAAAAAAAAAAAAAAAAAAAAAAAAAAAAAAAAAAAAAAAAAAAAAAAAAAAAAAAAAAAAAAAAAAAAAAAAAAAAAAAAAAAAAAAAAAAAAAAAAAAAAAAAAAAAAAAAAAAAAAAAAAAAAAQAAIAP3fZucG8BUAtW5zbgA7Aah1k3MDuByAWpf9j0Y9DECt25kbwAYAat2BzOc/vhuAWtfdlxdAZwlAvbs9L4CvAah5J+UFsByAmpf3r0fPKwGoe2fkBPAEALVv7PR85z9QAhD6s6CHAWiBdq/Mdf7XlAC0QityAfgIgJZoaEKe8/9XCUCLvAq25zj/N0sAWqWLO9Kf/4ShUQcwzskeaQsWJ38DXF7N5G1ugCQ9uSXt+W/cVtHgHgGJOndayvN/sbcEoMXq+WWy41/3bHVjA5Cul85J8zMgzz9UAtCafdTZf7zH/+p7w5WODEDaZuy5d92xn/6YC1/bW/HAXgOTt+3ZT898brDr6I6+/exlv7/zm1GY1mtg8DwCAAAAAAAAAAAAAAAAAAAAAAAAAAAAAAAAASAABIAAEAACQAAIAAEgAASAABAAAkAACAABIAAEgAAQAAJAAAgAASAABIAAEAACQAAIAAEgAASAABAAAkAACAABIAAEgAAQAAJAAAgAASAABIAAEAACQAAIAAEgAASAABAAAkAACAABIAAEgAAQAAJAAAgAAaDDA9huPc2vbwQA/dbT+LYWI7XVgprebSMCWGNBTe/bEQH8woKa3m9GBDDZgprenBEB9HXbULObUYzcE1YU+QlQFANW1Oi2dR0GQPGUJTW5mw93/kXbkC01t90dhwVQ/NOaGlvPycURtMOimtqjR3L+xfaDNtXMniiOrK5v7KqJ7S+OuHdsq3l9VRxFV2+zsGa1ZrA4qtputbMGtfWr4qib8PWwxTWj4UOnF8fUxPP2X2d9Ld3utWvemjbSGf8H/rRWlvwoJc4AAAAASUVORK5CYII=;" parent="1" vertex="1">
          <mxGeometry x="80" y="390.35" width="24" height="24" as="geometry" />
        </mxCell>
        <mxCell id="6lzwClU7MQIf-u7hIdwC-15" value="" style="verticalLabelPosition=bottom;aspect=fixed;html=1;shape=mxgraph.salesforce.data;rounded=0;align=center;verticalAlign=middle;fontFamily=Helvetica;fontSize=12;fontColor=default;fillColor=none;gradientColor=none;" parent="1" vertex="1">
          <mxGeometry x="265" y="388" width="20" height="24.69" as="geometry" />
        </mxCell>
        <mxCell id="6lzwClU7MQIf-u7hIdwC-16" value="" style="verticalLabelPosition=bottom;aspect=fixed;html=1;shape=mxgraph.salesforce.data;rounded=0;align=center;verticalAlign=middle;fontFamily=Helvetica;fontSize=12;fontColor=default;fillColor=none;gradientColor=none;" parent="1" vertex="1">
          <mxGeometry x="394" y="386" width="20" height="24.69" as="geometry" />
        </mxCell>
        <mxCell id="6lzwClU7MQIf-u7hIdwC-18" value="" style="verticalLabelPosition=bottom;aspect=fixed;html=1;shape=mxgraph.salesforce.data;rounded=0;align=center;verticalAlign=middle;fontFamily=Helvetica;fontSize=12;fontColor=default;fillColor=none;gradientColor=none;" parent="1" vertex="1">
          <mxGeometry x="515" y="384" width="20" height="24.69" as="geometry" />
        </mxCell>
        <mxCell id="6lzwClU7MQIf-u7hIdwC-19" value="" style="verticalLabelPosition=bottom;aspect=fixed;html=1;shape=mxgraph.salesforce.data;rounded=0;align=center;verticalAlign=middle;fontFamily=Helvetica;fontSize=12;fontColor=default;fillColor=none;gradientColor=none;" parent="1" vertex="1">
          <mxGeometry x="630" y="384" width="20" height="24.69" as="geometry" />
        </mxCell>
        <mxCell id="6lzwClU7MQIf-u7hIdwC-20" value="" style="verticalLabelPosition=bottom;aspect=fixed;html=1;shape=mxgraph.salesforce.data;rounded=0;align=center;verticalAlign=middle;fontFamily=Helvetica;fontSize=12;fontColor=default;fillColor=none;gradientColor=none;" parent="1" vertex="1">
          <mxGeometry x="750" y="384" width="20" height="24.69" as="geometry" />
        </mxCell>
        <mxCell id="6lzwClU7MQIf-u7hIdwC-21" value="" style="shape=image;imageAspect=0;aspect=fixed;verticalLabelPosition=bottom;verticalAlign=top;rounded=0;align=center;fontFamily=Helvetica;fontSize=12;fontColor=default;fillColor=none;gradientColor=none;image=data:image/png,iVBORw0KGgoAAAANSUhEUgAAAgAAAAIACAMAAADDpiTIAAACkVBMVEVMaXH/ZAD/ZgD/YAD/ZAD/ZAD/YgD/aAD/ZgD/ZgD/YgBMaXH/ZgD/VAD/YAD/ZAD/ZAD/XgD/ZAD/ZgD/ZAD/aAD/YgD/WgD/ZAD/ZAD/ZAD/YgD/ZgD/ZAD/gQD/ZgD/YgD/YAD/ZgD/ZAD/ZgD/ZgD/ZAD/ZgD/YAD/ZAD/ZAD/ZAD/ZgD/ZgD/ZgD/ZAD/ZAD/aAD/XAD/ZgD/agD/aAD/ZAD/ZgD/ZgD/ZAD/ZgD/ZAD/bAD/ZgD/VAD/ZgD/YgD/ZgD/ZAD/ZgD/ZgD/ZgD/YgD/ZAD/ZgD/ZAD/ZAD/VAD/ZgD/ZAD/ZgD/ZAD/QAD/ZAD/YgD/ZAD/ZAD/ZAD/ZgD/ZAD/YgD/ZgD/ZgD/ZgD/ZgD/ZgD/ZAD/ZAD/ZAD/ZAD/ZgD/ZAD/ZAD/ZgD/ZAD/ZAD/ZAD/ZgD/ZgD/ZAD/ZgD/ZgD/ZAD/ZAD/ZgD/ZgD/ZAD/YAD/ZgD/ZAD/ZgD/ZAD/ZAD/ZgD/ZgD/ZAD/ZAD/ZAD/ZgD/ZAD/YgD/ZAD/ZAD/ZgD/ZAD/ZgD/ZgD/ZAD/ZgD/ZAD/ZgD/ZgD/ZgD/ZgD/ZgD/ZAD/ZgD/ZgD/ZAD/ZgD/ZAD/ZAD/ZAD/ZAD/ZgD/ZgD/ZgD/ZAD/ZgD/ZAD/ZgD/ZgD/ZgD/ZAD/ZAD/ZgD/ZAD/ZAD/ZgD/ZAD/ZAD/ZAD/ZAD/ZgD/ZgD/ZgD/ZgD/ZgD/ZAD/ZgD/ZgD/ZAD/ZgD/ZgD/ZAD/ZAD/ZgD/ZgD/ZAD/ZAD/ZAD/ZAD/ZAD/ZgD/ZgD/ZgD/YgD/ZAD/ZgD/ZgD/ZgD/ZgD/ZgD/ZAD/ZAD/ZAD/ZgD/ZgD/ZAD/ZgD/ZgD/ZAD/ZgD/ZAD/ZgD/ZAD/ZAD/ZgD/ZgD/ZgD/ZAAWuWYOAAAA2XRSTlMAXoEYm0ASGhjfGgAKCAhSKhLr+TIQLA5Q+UI6PvUC5x4QHjTTPBz9HGpEFr0E8f1YIApcDBYoSuvFek4GMgJIDO2RLCJsNscoYtkGWtUk7QTRJredLkYwMBQqNmY49+84PPcgTDR+q6HZ8/NQTIEmw2BIFMunhVax47dUucNyhSKDPqNk1+mps+WtQm7JaHyXz8EuXInfi5n170oOr1avQJOfUtdGj1qZ43jdoV5Ug+HlzW6bdrXp1dvLjZXJYJG1lSSHavuf4WS7bDp4x7+rdM+5zYuPdHxwOFln4AAAAAlwSFlzAAALEwAACxMBAJqcGAAAClpJREFUeNrt3elzVuUZwOGjUSJMhnwhQIBhh4wKjUS2IkZsUBRUZFTE4BpcwR2XqoMVRVxHp7ajQFWmOnUdP7gRrLUdW2tX7TKl7flvOp1+btie5+S8575+f8E993PNczjvm5CiGLGuew7tv293ecztm3tgz8dbitHoxh/cv+OhY5/82s8WvLHi/CJ0s9+7u0zSwVfmVDv54nu+f22SyZffekfY47/qy+4yXQeurG7ylY8uTzj5wbNCHv+kB7aVSeu9f3U1ky/c9W7ayctvpsU7/ytmlMnrvqiKycesST95+dbCYOc/eajM0efT88t9N8vk384Kdf4rykz9PffkG3NN/vLsQOf/SJmtr/NOPrg12+Rzx4c5/5uG8gEo/51z8lkPZZx8f5TzbxvOuMWyZ0q+yafvyDl5eXMQALdk3WI5Y2W2yR/NO3nPxBDnP9ibd43lebkm71ifefKnXQC1vgJ25p68nBrg/AeybzHXFTBmb/bJXwoA4FB+AHPzTH51/snLRc0HMLaCNbZnmfxABZN/3Pjzn1jBFsvnc0w+vruCyRf4EDhFf8jy9UUVk/dMajqA16pY477WfAf4b/OaDuC+StbYkWHyTyqZvLPpAGZUssalGSZ/upLJT234+S/srWSNOb4P+KKSye9s+hdBlWyxzPGjQe9XMvmXDQfQXg2AE1r0A4yyfAeAFP0YAAAACAzgTAAAACAwgLcBiA3gIgAAACAwgDMAAAAAAACICuB1AAAAIDCABwEAAACPAACiAngEAAAACAygEwAAAAgM4E0AYgOYDAAAAAQGcDsAAAAQGMBZAAAAAAAARAVwBwAAABAYwI0AxAawDAAAAAgM4CcAAABAYAD3AhAbwDkAAABAYAA/AwAAAAID2AhAbACnAQAAAAAAAAAAIQE8B0BsAFMAAAAAjwAAAAAgJICTAYgN4HEAAAAgMIBpAAAAQGAANwAQG8A8AAAAIDCAqQAAAEBgAH8CIDaAawAAAIDAAK4HAAAAAgPYDEBsAOcDAAAAgQHMAQAAAAIDuAmA2AAmAAAAAIEBnA0AAAAEBrAJgNgArgQAAAACA/gRAAAAEBjAFQDEBjAAAAAABAYwEQAAAPAIAAAAAEICGAQAAAAAACAqgAsAAACAwACWAhAbwF0AAABAYACXAAAAAIEB/BqA2ABWAwAAAIEBPAYAAAB4BAAQFcAiAAAAIDCALQAAAEBgALMBiA1gJgAAABAYwHwAAAAgMIB2AGIDGAcAAAB4BAAAAAAhAbQBEBvAKQAAAEBgAEsAAACAwABOByA2gKsAAACAwAC2AwAAAIEBjAEgNoAuAAAAIDCAWQAAAIBHAABRAUwCAAAAAgN4FQAAAAgMYDEAsQGsAgAAAAID6AAAAAACA+gDIDaA8QAAAEBgACsBAACAwADWAeAGAAAAAKICuBQAAAAIDGAhALEBTAcAAAACA+gHAAAAAgMoAAAAAAAACAqgFwAAAAgMoAcAAAAAAICoAH4LgNfA5A1XMvkeAFKU4+8FVDP5GwCkaEL6yedXM/nDDQcwrpo1dqaf/MZqJv+hGyBFJ6Wf/MtqJh9aB0CClqef/JlqJi/P8QhI0ZTUgy+raPDye26AFP0t8dz9a6sCsP5VAFK0K+3c95SV9TkAKbpudtJ3wPXVAei5AYAUbUj4yyHj55YVtn4mACm6P9nQiw+UlTa3HYAkn6ksSjPzlifLihveDECK9p2XYuS/fqesvp0AJGnt5OP9D+OWXVyOSmM7AUjT3TvP2PS//zVufF/HqsWTumZ1bb/q9CWntI9rnz9zy6LVj62+5K6lFwwOTBy44spNZ0+46fzN118zdd4N0x6f8vqpdy64thy19h54cddZJ9e9qQPjOuoNQNm77cQBAIJ38AMAgvfZ29MBiN23swCI3dil9fk6WKPRtilugNjtWw1A8DfCSQDEbkE/ALG7EIDYvdwPQOzOBCB2LwEQu95JAHgGABC4pwCI3VoAYrccgNj19AMQuzEAxK4dAAAAAAAAAAAAAAAAAAAAAAAAAAAAAAAAQAAIAAEgAASAABAAAkAACAABIAAEgAAQAAJAAAgAASAABIAAEAACQAAIAAEgAASAABAAAkAACAABIAAEgAAQAAJAAAgAASAABIAAEAACQAAIAAEgAASAABAAAkAACAABIAAEgAAQAAJAAAgAASAABIAAEAACQEcCYJz1HFt737/7L7868aja8/R9H47KrG1ugLT1frFiYnFsrTztp79zA7R2Y/94SnFcbXpgqxugZXvmhUuL4277oW7/CGzJrvtzX5Gkmbf2ANB6bVhSJGvjVgBarcv6ioQNfghAa/VOf5G0JRsAaKVeKVK36ufeAlro/i/S1zbsBmiVDq7KAKCYMwRAa3Tu/CJLDwLQGn1QZOoWAFqhuf25AMweAqAFurfI1gMA1L/v5jv/om8YgNo3JyOA4gWfA9S9sTnPv9je6waoef/ICqDYAUDNm5oXwKcA1Lvlec+/uACAend5ZgDFXgBq3am5ARwEoNZ15gZwGQC1bl5uAJ8AUOsuyQ3g5lEE4PcCDt/23AB2+SSw1o3JDeAEjwAAAAAAAAAAAAAAAAAAAAAAAAAAAAAAAAAAAAAAAAAAAAAAAAAAAAAAAAAAAAAAAAAAAAAAAAAAAAAAAAAAAAAAAAAAAAAAAAAAAAAAAAAAAAAAAAAAAAAAAAAAAAAAAAAAAAAAAAAAQAAIAP3fZucG8BUAtW5zbgA7Aah1k3MDuByAWpf9j0Y9DECt25kbwAYAat2BzOc/vhuAWtfdlxdAZwlAvbs9L4CvAah5J+UFsByAmpf3r0fPKwGoe2fkBPAEALVv7PR85z9QAhD6s6CHAWiBdq/Mdf7XlAC0QityAfgIgJZoaEKe8/9XCUCLvAq25zj/N0sAWqWLO9Kf/4ShUQcwzskeaQsWJ38DXF7N5G1ugCQ9uSXt+W/cVtHgHgGJOndayvN/sbcEoMXq+WWy41/3bHVjA5Cul85J8zMgzz9UAtCafdTZf7zH/+p7w5WODEDaZuy5d92xn/6YC1/bW/HAXgOTt+3ZT898brDr6I6+/exlv7/zm1GY1mtg8DwCAAAAAAAAAAAAAAAAAAAAAAAAAAAAAAAAASAABIAAEAACQAAIAAEgAASAABAAAkAACAABIAAEgAAQAAJAAAgAASAABIAAEAACQAAIAAEgAASAABAAAkAACAABIAAEgAAQAAJAAAgAASAABIAAEAACQAAIAAEgAASAABAAAkAACAABIAAEgAAQAAJAAAgAAaDDA9huPc2vbwQA/dbT+LYWI7XVgprebSMCWGNBTe/bEQH8woKa3m9GBDDZgprenBEB9HXbULObUYzcE1YU+QlQFANW1Oi2dR0GQPGUJTW5mw93/kXbkC01t90dhwVQ/NOaGlvPycURtMOimtqjR3L+xfaDNtXMniiOrK5v7KqJ7S+OuHdsq3l9VRxFV2+zsGa1ZrA4qtputbMGtfWr4qib8PWwxTWj4UOnF8fUxPP2X2d9Ld3utWvemjbSGf8H/rRWlvwoJc4AAAAASUVORK5CYII=;" parent="1" vertex="1">
          <mxGeometry x="295" y="387.65000000000003" width="24" height="24" as="geometry" />
        </mxCell>
        <mxCell id="6lzwClU7MQIf-u7hIdwC-22" value="" style="shape=image;imageAspect=0;aspect=fixed;verticalLabelPosition=bottom;verticalAlign=top;rounded=0;align=center;fontFamily=Helvetica;fontSize=12;fontColor=default;fillColor=none;gradientColor=none;image=data:image/png,iVBORw0KGgoAAAANSUhEUgAAAgAAAAIACAMAAADDpiTIAAACkVBMVEVMaXH/ZAD/ZgD/YAD/ZAD/ZAD/YgD/aAD/ZgD/ZgD/YgBMaXH/ZgD/VAD/YAD/ZAD/ZAD/XgD/ZAD/ZgD/ZAD/aAD/YgD/WgD/ZAD/ZAD/ZAD/YgD/ZgD/ZAD/gQD/ZgD/YgD/YAD/ZgD/ZAD/ZgD/ZgD/ZAD/ZgD/YAD/ZAD/ZAD/ZAD/ZgD/ZgD/ZgD/ZAD/ZAD/aAD/XAD/ZgD/agD/aAD/ZAD/ZgD/ZgD/ZAD/ZgD/ZAD/bAD/ZgD/VAD/ZgD/YgD/ZgD/ZAD/ZgD/ZgD/ZgD/YgD/ZAD/ZgD/ZAD/ZAD/VAD/ZgD/ZAD/ZgD/ZAD/QAD/ZAD/YgD/ZAD/ZAD/ZAD/ZgD/ZAD/YgD/ZgD/ZgD/ZgD/ZgD/ZgD/ZAD/ZAD/ZAD/ZAD/ZgD/ZAD/ZAD/ZgD/ZAD/ZAD/ZAD/ZgD/ZgD/ZAD/ZgD/ZgD/ZAD/ZAD/ZgD/ZgD/ZAD/YAD/ZgD/ZAD/ZgD/ZAD/ZAD/ZgD/ZgD/ZAD/ZAD/ZAD/ZgD/ZAD/YgD/ZAD/ZAD/ZgD/ZAD/ZgD/ZgD/ZAD/ZgD/ZAD/ZgD/ZgD/ZgD/ZgD/ZgD/ZAD/ZgD/ZgD/ZAD/ZgD/ZAD/ZAD/ZAD/ZAD/ZgD/ZgD/ZgD/ZAD/ZgD/ZAD/ZgD/ZgD/ZgD/ZAD/ZAD/ZgD/ZAD/ZAD/ZgD/ZAD/ZAD/ZAD/ZAD/ZgD/ZgD/ZgD/ZgD/ZgD/ZAD/ZgD/ZgD/ZAD/ZgD/ZgD/ZAD/ZAD/ZgD/ZgD/ZAD/ZAD/ZAD/ZAD/ZAD/ZgD/ZgD/ZgD/YgD/ZAD/ZgD/ZgD/ZgD/ZgD/ZgD/ZAD/ZAD/ZAD/ZgD/ZgD/ZAD/ZgD/ZgD/ZAD/ZgD/ZAD/ZgD/ZAD/ZAD/ZgD/ZgD/ZgD/ZAAWuWYOAAAA2XRSTlMAXoEYm0ASGhjfGgAKCAhSKhLr+TIQLA5Q+UI6PvUC5x4QHjTTPBz9HGpEFr0E8f1YIApcDBYoSuvFek4GMgJIDO2RLCJsNscoYtkGWtUk7QTRJredLkYwMBQqNmY49+84PPcgTDR+q6HZ8/NQTIEmw2BIFMunhVax47dUucNyhSKDPqNk1+mps+WtQm7JaHyXz8EuXInfi5n170oOr1avQJOfUtdGj1qZ43jdoV5Ug+HlzW6bdrXp1dvLjZXJYJG1lSSHavuf4WS7bDp4x7+rdM+5zYuPdHxwOFln4AAAAAlwSFlzAAALEwAACxMBAJqcGAAAClpJREFUeNrt3elzVuUZwOGjUSJMhnwhQIBhh4wKjUS2IkZsUBRUZFTE4BpcwR2XqoMVRVxHp7ajQFWmOnUdP7gRrLUdW2tX7TKl7flvOp1+btie5+S8575+f8E993PNczjvm5CiGLGuew7tv293ecztm3tgz8dbitHoxh/cv+OhY5/82s8WvLHi/CJ0s9+7u0zSwVfmVDv54nu+f22SyZffekfY47/qy+4yXQeurG7ylY8uTzj5wbNCHv+kB7aVSeu9f3U1ky/c9W7ayctvpsU7/ytmlMnrvqiKycesST95+dbCYOc/eajM0efT88t9N8vk384Kdf4rykz9PffkG3NN/vLsQOf/SJmtr/NOPrg12+Rzx4c5/5uG8gEo/51z8lkPZZx8f5TzbxvOuMWyZ0q+yafvyDl5eXMQALdk3WI5Y2W2yR/NO3nPxBDnP9ibd43lebkm71ifefKnXQC1vgJ25p68nBrg/AeybzHXFTBmb/bJXwoA4FB+AHPzTH51/snLRc0HMLaCNbZnmfxABZN/3Pjzn1jBFsvnc0w+vruCyRf4EDhFf8jy9UUVk/dMajqA16pY477WfAf4b/OaDuC+StbYkWHyTyqZvLPpAGZUssalGSZ/upLJT234+S/srWSNOb4P+KKSye9s+hdBlWyxzPGjQe9XMvmXDQfQXg2AE1r0A4yyfAeAFP0YAAAACAzgTAAAACAwgLcBiA3gIgAAACAwgDMAAAAAAACICuB1AAAAIDCABwEAAACPAACiAngEAAAACAygEwAAAAgM4E0AYgOYDAAAAAQGcDsAAAAQGMBZAAAAAAAARAVwBwAAABAYwI0AxAawDAAAAAgM4CcAAABAYAD3AhAbwDkAAABAYAA/AwAAAAID2AhAbACnAQAAAAAAAAAAIQE8B0BsAFMAAAAAjwAAAAAgJICTAYgN4HEAAAAgMIBpAAAAQGAANwAQG8A8AAAAIDCAqQAAAEBgAH8CIDaAawAAAIDAAK4HAAAAAgPYDEBsAOcDAAAAgQHMAQAAAAIDuAmA2AAmAAAAAIEBnA0AAAAEBrAJgNgArgQAAAACA/gRAAAAEBjAFQDEBjAAAAAABAYwEQAAAPAIAAAAAEICGAQAAAAAACAqgAsAAACAwACWAhAbwF0AAABAYACXAAAAAIEB/BqA2ABWAwAAAIEBPAYAAAB4BAAQFcAiAAAAIDCALQAAAEBgALMBiA1gJgAAABAYwHwAAAAgMIB2AGIDGAcAAAB4BAAAAAAhAbQBEBvAKQAAAEBgAEsAAACAwABOByA2gKsAAACAwAC2AwAAAIEBjAEgNoAuAAAAIDCAWQAAAIBHAABRAUwCAAAAAgN4FQAAAAgMYDEAsQGsAgAAAAID6AAAAAACA+gDIDaA8QAAAEBgACsBAACAwADWAeAGAAAAAKICuBQAAAAIDGAhALEBTAcAAAACA+gHAAAAAgMoAAAAAAAACAqgFwAAAAgMoAcAAAAAAICoAH4LgNfA5A1XMvkeAFKU4+8FVDP5GwCkaEL6yedXM/nDDQcwrpo1dqaf/MZqJv+hGyBFJ6Wf/MtqJh9aB0CClqef/JlqJi/P8QhI0ZTUgy+raPDye26AFP0t8dz9a6sCsP5VAFK0K+3c95SV9TkAKbpudtJ3wPXVAei5AYAUbUj4yyHj55YVtn4mACm6P9nQiw+UlTa3HYAkn6ksSjPzlifLihveDECK9p2XYuS/fqesvp0AJGnt5OP9D+OWXVyOSmM7AUjT3TvP2PS//zVufF/HqsWTumZ1bb/q9CWntI9rnz9zy6LVj62+5K6lFwwOTBy44spNZ0+46fzN118zdd4N0x6f8vqpdy64thy19h54cddZJ9e9qQPjOuoNQNm77cQBAIJ38AMAgvfZ29MBiN23swCI3dil9fk6WKPRtilugNjtWw1A8DfCSQDEbkE/ALG7EIDYvdwPQOzOBCB2LwEQu95JAHgGABC4pwCI3VoAYrccgNj19AMQuzEAxK4dAAAAAAAAAAAAAAAAAAAAAAAAAAAAAAAAQAAIAAEgAASAABAAAkAACAABIAAEgAAQAAJAAAgAASAABIAAEAACQAAIAAEgAASAABAAAkAACAABIAAEgAAQAAJAAAgAASAABIAAEAACQAAIAAEgAASAABAAAkAACAABIAAEgAAQAAJAAAgAASAABIAAEAACQEcCYJz1HFt737/7L7868aja8/R9H47KrG1ugLT1frFiYnFsrTztp79zA7R2Y/94SnFcbXpgqxugZXvmhUuL4277oW7/CGzJrvtzX5Gkmbf2ANB6bVhSJGvjVgBarcv6ioQNfghAa/VOf5G0JRsAaKVeKVK36ufeAlro/i/S1zbsBmiVDq7KAKCYMwRAa3Tu/CJLDwLQGn1QZOoWAFqhuf25AMweAqAFurfI1gMA1L/v5jv/om8YgNo3JyOA4gWfA9S9sTnPv9je6waoef/ICqDYAUDNm5oXwKcA1Lvlec+/uACAend5ZgDFXgBq3am5ARwEoNZ15gZwGQC1bl5uAJ8AUOsuyQ3g5lEE4PcCDt/23AB2+SSw1o3JDeAEjwAAAAAAAAAAAAAAAAAAAAAAAAAAAAAAAAAAAAAAAAAAAAAAAAAAAAAAAAAAAAAAAAAAAAAAAAAAAAAAAAAAAAAAAAAAAAAAAAAAAAAAAAAAAAAAAAAAAAAAAAAAAAAAAAAAAAAAAAAAQAAIAP3fZucG8BUAtW5zbgA7Aah1k3MDuByAWpf9j0Y9DECt25kbwAYAat2BzOc/vhuAWtfdlxdAZwlAvbs9L4CvAah5J+UFsByAmpf3r0fPKwGoe2fkBPAEALVv7PR85z9QAhD6s6CHAWiBdq/Mdf7XlAC0QityAfgIgJZoaEKe8/9XCUCLvAq25zj/N0sAWqWLO9Kf/4ShUQcwzskeaQsWJ38DXF7N5G1ugCQ9uSXt+W/cVtHgHgGJOndayvN/sbcEoMXq+WWy41/3bHVjA5Cul85J8zMgzz9UAtCafdTZf7zH/+p7w5WODEDaZuy5d92xn/6YC1/bW/HAXgOTt+3ZT898brDr6I6+/exlv7/zm1GY1mtg8DwCAAAAAAAAAAAAAAAAAAAAAAAAAAAAAAAAASAABIAAEAACQAAIAAEgAASAABAAAkAACAABIAAEgAAQAAJAAAgAASAABIAAEAACQAAIAAEgAASAABAAAkAACAABIAAEgAAQAAJAAAgAASAABIAAEAACQAAIAAEgAASAABAAAkAACAABIAAEgAAQAAJAAAgAAaDDA9huPc2vbwQA/dbT+LYWI7XVgprebSMCWGNBTe/bEQH8woKa3m9GBDDZgprenBEB9HXbULObUYzcE1YU+QlQFANW1Oi2dR0GQPGUJTW5mw93/kXbkC01t90dhwVQ/NOaGlvPycURtMOimtqjR3L+xfaDNtXMniiOrK5v7KqJ7S+OuHdsq3l9VRxFV2+zsGa1ZrA4qtputbMGtfWr4qib8PWwxTWj4UOnF8fUxPP2X2d9Ld3utWvemjbSGf8H/rRWlvwoJc4AAAAASUVORK5CYII=;" parent="1" vertex="1">
          <mxGeometry x="438" y="386" width="24" height="24" as="geometry" />
        </mxCell>
        <mxCell id="6lzwClU7MQIf-u7hIdwC-23" value="" style="shape=image;imageAspect=0;aspect=fixed;verticalLabelPosition=bottom;verticalAlign=top;rounded=0;align=center;fontFamily=Helvetica;fontSize=12;fontColor=default;fillColor=none;gradientColor=none;image=data:image/png,iVBORw0KGgoAAAANSUhEUgAAAgAAAAIACAMAAADDpiTIAAACkVBMVEVMaXH/ZAD/ZgD/YAD/ZAD/ZAD/YgD/aAD/ZgD/ZgD/YgBMaXH/ZgD/VAD/YAD/ZAD/ZAD/XgD/ZAD/ZgD/ZAD/aAD/YgD/WgD/ZAD/ZAD/ZAD/YgD/ZgD/ZAD/gQD/ZgD/YgD/YAD/ZgD/ZAD/ZgD/ZgD/ZAD/ZgD/YAD/ZAD/ZAD/ZAD/ZgD/ZgD/ZgD/ZAD/ZAD/aAD/XAD/ZgD/agD/aAD/ZAD/ZgD/ZgD/ZAD/ZgD/ZAD/bAD/ZgD/VAD/ZgD/YgD/ZgD/ZAD/ZgD/ZgD/ZgD/YgD/ZAD/ZgD/ZAD/ZAD/VAD/ZgD/ZAD/ZgD/ZAD/QAD/ZAD/YgD/ZAD/ZAD/ZAD/ZgD/ZAD/YgD/ZgD/ZgD/ZgD/ZgD/ZgD/ZAD/ZAD/ZAD/ZAD/ZgD/ZAD/ZAD/ZgD/ZAD/ZAD/ZAD/ZgD/ZgD/ZAD/ZgD/ZgD/ZAD/ZAD/ZgD/ZgD/ZAD/YAD/ZgD/ZAD/ZgD/ZAD/ZAD/ZgD/ZgD/ZAD/ZAD/ZAD/ZgD/ZAD/YgD/ZAD/ZAD/ZgD/ZAD/ZgD/ZgD/ZAD/ZgD/ZAD/ZgD/ZgD/ZgD/ZgD/ZgD/ZAD/ZgD/ZgD/ZAD/ZgD/ZAD/ZAD/ZAD/ZAD/ZgD/ZgD/ZgD/ZAD/ZgD/ZAD/ZgD/ZgD/ZgD/ZAD/ZAD/ZgD/ZAD/ZAD/ZgD/ZAD/ZAD/ZAD/ZAD/ZgD/ZgD/ZgD/ZgD/ZgD/ZAD/ZgD/ZgD/ZAD/ZgD/ZgD/ZAD/ZAD/ZgD/ZgD/ZAD/ZAD/ZAD/ZAD/ZAD/ZgD/ZgD/ZgD/YgD/ZAD/ZgD/ZgD/ZgD/ZgD/ZgD/ZAD/ZAD/ZAD/ZgD/ZgD/ZAD/ZgD/ZgD/ZAD/ZgD/ZAD/ZgD/ZAD/ZAD/ZgD/ZgD/ZgD/ZAAWuWYOAAAA2XRSTlMAXoEYm0ASGhjfGgAKCAhSKhLr+TIQLA5Q+UI6PvUC5x4QHjTTPBz9HGpEFr0E8f1YIApcDBYoSuvFek4GMgJIDO2RLCJsNscoYtkGWtUk7QTRJredLkYwMBQqNmY49+84PPcgTDR+q6HZ8/NQTIEmw2BIFMunhVax47dUucNyhSKDPqNk1+mps+WtQm7JaHyXz8EuXInfi5n170oOr1avQJOfUtdGj1qZ43jdoV5Ug+HlzW6bdrXp1dvLjZXJYJG1lSSHavuf4WS7bDp4x7+rdM+5zYuPdHxwOFln4AAAAAlwSFlzAAALEwAACxMBAJqcGAAAClpJREFUeNrt3elzVuUZwOGjUSJMhnwhQIBhh4wKjUS2IkZsUBRUZFTE4BpcwR2XqoMVRVxHp7ajQFWmOnUdP7gRrLUdW2tX7TKl7flvOp1+btie5+S8575+f8E993PNczjvm5CiGLGuew7tv293ecztm3tgz8dbitHoxh/cv+OhY5/82s8WvLHi/CJ0s9+7u0zSwVfmVDv54nu+f22SyZffekfY47/qy+4yXQeurG7ylY8uTzj5wbNCHv+kB7aVSeu9f3U1ky/c9W7ayctvpsU7/ytmlMnrvqiKycesST95+dbCYOc/eajM0efT88t9N8vk384Kdf4rykz9PffkG3NN/vLsQOf/SJmtr/NOPrg12+Rzx4c5/5uG8gEo/51z8lkPZZx8f5TzbxvOuMWyZ0q+yafvyDl5eXMQALdk3WI5Y2W2yR/NO3nPxBDnP9ibd43lebkm71ifefKnXQC1vgJ25p68nBrg/AeybzHXFTBmb/bJXwoA4FB+AHPzTH51/snLRc0HMLaCNbZnmfxABZN/3Pjzn1jBFsvnc0w+vruCyRf4EDhFf8jy9UUVk/dMajqA16pY477WfAf4b/OaDuC+StbYkWHyTyqZvLPpAGZUssalGSZ/upLJT234+S/srWSNOb4P+KKSye9s+hdBlWyxzPGjQe9XMvmXDQfQXg2AE1r0A4yyfAeAFP0YAAAACAzgTAAAACAwgLcBiA3gIgAAACAwgDMAAAAAAACICuB1AAAAIDCABwEAAACPAACiAngEAAAACAygEwAAAAgM4E0AYgOYDAAAAAQGcDsAAAAQGMBZAAAAAAAARAVwBwAAABAYwI0AxAawDAAAAAgM4CcAAABAYAD3AhAbwDkAAABAYAA/AwAAAAID2AhAbACnAQAAAAAAAAAAIQE8B0BsAFMAAAAAjwAAAAAgJICTAYgN4HEAAAAgMIBpAAAAQGAANwAQG8A8AAAAIDCAqQAAAEBgAH8CIDaAawAAAIDAAK4HAAAAAgPYDEBsAOcDAAAAgQHMAQAAAAIDuAmA2AAmAAAAAIEBnA0AAAAEBrAJgNgArgQAAAACA/gRAAAAEBjAFQDEBjAAAAAABAYwEQAAAPAIAAAAAEICGAQAAAAAACAqgAsAAACAwACWAhAbwF0AAABAYACXAAAAAIEB/BqA2ABWAwAAAIEBPAYAAAB4BAAQFcAiAAAAIDCALQAAAEBgALMBiA1gJgAAABAYwHwAAAAgMIB2AGIDGAcAAAB4BAAAAAAhAbQBEBvAKQAAAEBgAEsAAACAwABOByA2gKsAAACAwAC2AwAAAIEBjAEgNoAuAAAAIDCAWQAAAIBHAABRAUwCAAAAAgN4FQAAAAgMYDEAsQGsAgAAAAID6AAAAAACA+gDIDaA8QAAAEBgACsBAACAwADWAeAGAAAAAKICuBQAAAAIDGAhALEBTAcAAAACA+gHAAAAAgMoAAAAAAAACAqgFwAAAAgMoAcAAAAAAICoAH4LgNfA5A1XMvkeAFKU4+8FVDP5GwCkaEL6yedXM/nDDQcwrpo1dqaf/MZqJv+hGyBFJ6Wf/MtqJh9aB0CClqef/JlqJi/P8QhI0ZTUgy+raPDye26AFP0t8dz9a6sCsP5VAFK0K+3c95SV9TkAKbpudtJ3wPXVAei5AYAUbUj4yyHj55YVtn4mACm6P9nQiw+UlTa3HYAkn6ksSjPzlifLihveDECK9p2XYuS/fqesvp0AJGnt5OP9D+OWXVyOSmM7AUjT3TvP2PS//zVufF/HqsWTumZ1bb/q9CWntI9rnz9zy6LVj62+5K6lFwwOTBy44spNZ0+46fzN118zdd4N0x6f8vqpdy64thy19h54cddZJ9e9qQPjOuoNQNm77cQBAIJ38AMAgvfZ29MBiN23swCI3dil9fk6WKPRtilugNjtWw1A8DfCSQDEbkE/ALG7EIDYvdwPQOzOBCB2LwEQu95JAHgGABC4pwCI3VoAYrccgNj19AMQuzEAxK4dAAAAAAAAAAAAAAAAAAAAAAAAAAAAAAAAQAAIAAEgAASAABAAAkAACAABIAAEgAAQAAJAAAgAASAABIAAEAACQAAIAAEgAASAABAAAkAACAABIAAEgAAQAAJAAAgAASAABIAAEAACQAAIAAEgAASAABAAAkAACAABIAAEgAAQAAJAAAgAASAABIAAEAACQEcCYJz1HFt737/7L7868aja8/R9H47KrG1ugLT1frFiYnFsrTztp79zA7R2Y/94SnFcbXpgqxugZXvmhUuL4277oW7/CGzJrvtzX5Gkmbf2ANB6bVhSJGvjVgBarcv6ioQNfghAa/VOf5G0JRsAaKVeKVK36ufeAlro/i/S1zbsBmiVDq7KAKCYMwRAa3Tu/CJLDwLQGn1QZOoWAFqhuf25AMweAqAFurfI1gMA1L/v5jv/om8YgNo3JyOA4gWfA9S9sTnPv9je6waoef/ICqDYAUDNm5oXwKcA1Lvlec+/uACAend5ZgDFXgBq3am5ARwEoNZ15gZwGQC1bl5uAJ8AUOsuyQ3g5lEE4PcCDt/23AB2+SSw1o3JDeAEjwAAAAAAAAAAAAAAAAAAAAAAAAAAAAAAAAAAAAAAAAAAAAAAAAAAAAAAAAAAAAAAAAAAAAAAAAAAAAAAAAAAAAAAAAAAAAAAAAAAAAAAAAAAAAAAAAAAAAAAAAAAAAAAAAAAAAAAAAAAQAAIAP3fZucG8BUAtW5zbgA7Aah1k3MDuByAWpf9j0Y9DECt25kbwAYAat2BzOc/vhuAWtfdlxdAZwlAvbs9L4CvAah5J+UFsByAmpf3r0fPKwGoe2fkBPAEALVv7PR85z9QAhD6s6CHAWiBdq/Mdf7XlAC0QityAfgIgJZoaEKe8/9XCUCLvAq25zj/N0sAWqWLO9Kf/4ShUQcwzskeaQsWJ38DXF7N5G1ugCQ9uSXt+W/cVtHgHgGJOndayvN/sbcEoMXq+WWy41/3bHVjA5Cul85J8zMgzz9UAtCafdTZf7zH/+p7w5WODEDaZuy5d92xn/6YC1/bW/HAXgOTt+3ZT898brDr6I6+/exlv7/zm1GY1mtg8DwCAAAAAAAAAAAAAAAAAAAAAAAAAAAAAAAAASAABIAAEAACQAAIAAEgAASAABAAAkAACAABIAAEgAAQAAJAAAgAASAABIAAEAACQAAIAAEgAASAABAAAkAACAABIAAEgAAQAAJAAAgAASAABIAAEAACQAAIAAEgAASAABAAAkAACAABIAAEgAAQAAJAAAgAAaDDA9huPc2vbwQA/dbT+LYWI7XVgprebSMCWGNBTe/bEQH8woKa3m9GBDDZgprenBEB9HXbULObUYzcE1YU+QlQFANW1Oi2dR0GQPGUJTW5mw93/kXbkC01t90dhwVQ/NOaGlvPycURtMOimtqjR3L+xfaDNtXMniiOrK5v7KqJ7S+OuHdsq3l9VRxFV2+zsGa1ZrA4qtputbMGtfWr4qib8PWwxTWj4UOnF8fUxPP2X2d9Ld3utWvemjbSGf8H/rRWlvwoJc4AAAAASUVORK5CYII=;" parent="1" vertex="1">
          <mxGeometry x="560" y="384" width="24" height="24" as="geometry" />
        </mxCell>
        <mxCell id="6lzwClU7MQIf-u7hIdwC-24" value="" style="shape=image;imageAspect=0;aspect=fixed;verticalLabelPosition=bottom;verticalAlign=top;rounded=0;align=center;fontFamily=Helvetica;fontSize=12;fontColor=default;fillColor=none;gradientColor=none;image=data:image/png,iVBORw0KGgoAAAANSUhEUgAAAgAAAAIACAMAAADDpiTIAAACkVBMVEVMaXH/ZAD/ZgD/YAD/ZAD/ZAD/YgD/aAD/ZgD/ZgD/YgBMaXH/ZgD/VAD/YAD/ZAD/ZAD/XgD/ZAD/ZgD/ZAD/aAD/YgD/WgD/ZAD/ZAD/ZAD/YgD/ZgD/ZAD/gQD/ZgD/YgD/YAD/ZgD/ZAD/ZgD/ZgD/ZAD/ZgD/YAD/ZAD/ZAD/ZAD/ZgD/ZgD/ZgD/ZAD/ZAD/aAD/XAD/ZgD/agD/aAD/ZAD/ZgD/ZgD/ZAD/ZgD/ZAD/bAD/ZgD/VAD/ZgD/YgD/ZgD/ZAD/ZgD/ZgD/ZgD/YgD/ZAD/ZgD/ZAD/ZAD/VAD/ZgD/ZAD/ZgD/ZAD/QAD/ZAD/YgD/ZAD/ZAD/ZAD/ZgD/ZAD/YgD/ZgD/ZgD/ZgD/ZgD/ZgD/ZAD/ZAD/ZAD/ZAD/ZgD/ZAD/ZAD/ZgD/ZAD/ZAD/ZAD/ZgD/ZgD/ZAD/ZgD/ZgD/ZAD/ZAD/ZgD/ZgD/ZAD/YAD/ZgD/ZAD/ZgD/ZAD/ZAD/ZgD/ZgD/ZAD/ZAD/ZAD/ZgD/ZAD/YgD/ZAD/ZAD/ZgD/ZAD/ZgD/ZgD/ZAD/ZgD/ZAD/ZgD/ZgD/ZgD/ZgD/ZgD/ZAD/ZgD/ZgD/ZAD/ZgD/ZAD/ZAD/ZAD/ZAD/ZgD/ZgD/ZgD/ZAD/ZgD/ZAD/ZgD/ZgD/ZgD/ZAD/ZAD/ZgD/ZAD/ZAD/ZgD/ZAD/ZAD/ZAD/ZAD/ZgD/ZgD/ZgD/ZgD/ZgD/ZAD/ZgD/ZgD/ZAD/ZgD/ZgD/ZAD/ZAD/ZgD/ZgD/ZAD/ZAD/ZAD/ZAD/ZAD/ZgD/ZgD/ZgD/YgD/ZAD/ZgD/ZgD/ZgD/ZgD/ZgD/ZAD/ZAD/ZAD/ZgD/ZgD/ZAD/ZgD/ZgD/ZAD/ZgD/ZAD/ZgD/ZAD/ZAD/ZgD/ZgD/ZgD/ZAAWuWYOAAAA2XRSTlMAXoEYm0ASGhjfGgAKCAhSKhLr+TIQLA5Q+UI6PvUC5x4QHjTTPBz9HGpEFr0E8f1YIApcDBYoSuvFek4GMgJIDO2RLCJsNscoYtkGWtUk7QTRJredLkYwMBQqNmY49+84PPcgTDR+q6HZ8/NQTIEmw2BIFMunhVax47dUucNyhSKDPqNk1+mps+WtQm7JaHyXz8EuXInfi5n170oOr1avQJOfUtdGj1qZ43jdoV5Ug+HlzW6bdrXp1dvLjZXJYJG1lSSHavuf4WS7bDp4x7+rdM+5zYuPdHxwOFln4AAAAAlwSFlzAAALEwAACxMBAJqcGAAAClpJREFUeNrt3elzVuUZwOGjUSJMhnwhQIBhh4wKjUS2IkZsUBRUZFTE4BpcwR2XqoMVRVxHp7ajQFWmOnUdP7gRrLUdW2tX7TKl7flvOp1+btie5+S8575+f8E993PNczjvm5CiGLGuew7tv293ecztm3tgz8dbitHoxh/cv+OhY5/82s8WvLHi/CJ0s9+7u0zSwVfmVDv54nu+f22SyZffekfY47/qy+4yXQeurG7ylY8uTzj5wbNCHv+kB7aVSeu9f3U1ky/c9W7ayctvpsU7/ytmlMnrvqiKycesST95+dbCYOc/eajM0efT88t9N8vk384Kdf4rykz9PffkG3NN/vLsQOf/SJmtr/NOPrg12+Rzx4c5/5uG8gEo/51z8lkPZZx8f5TzbxvOuMWyZ0q+yafvyDl5eXMQALdk3WI5Y2W2yR/NO3nPxBDnP9ibd43lebkm71ifefKnXQC1vgJ25p68nBrg/AeybzHXFTBmb/bJXwoA4FB+AHPzTH51/snLRc0HMLaCNbZnmfxABZN/3Pjzn1jBFsvnc0w+vruCyRf4EDhFf8jy9UUVk/dMajqA16pY477WfAf4b/OaDuC+StbYkWHyTyqZvLPpAGZUssalGSZ/upLJT234+S/srWSNOb4P+KKSye9s+hdBlWyxzPGjQe9XMvmXDQfQXg2AE1r0A4yyfAeAFP0YAAAACAzgTAAAACAwgLcBiA3gIgAAACAwgDMAAAAAAACICuB1AAAAIDCABwEAAACPAACiAngEAAAACAygEwAAAAgM4E0AYgOYDAAAAAQGcDsAAAAQGMBZAAAAAAAARAVwBwAAABAYwI0AxAawDAAAAAgM4CcAAABAYAD3AhAbwDkAAABAYAA/AwAAAAID2AhAbACnAQAAAAAAAAAAIQE8B0BsAFMAAAAAjwAAAAAgJICTAYgN4HEAAAAgMIBpAAAAQGAANwAQG8A8AAAAIDCAqQAAAEBgAH8CIDaAawAAAIDAAK4HAAAAAgPYDEBsAOcDAAAAgQHMAQAAAAIDuAmA2AAmAAAAAIEBnA0AAAAEBrAJgNgArgQAAAACA/gRAAAAEBjAFQDEBjAAAAAABAYwEQAAAPAIAAAAAEICGAQAAAAAACAqgAsAAACAwACWAhAbwF0AAABAYACXAAAAAIEB/BqA2ABWAwAAAIEBPAYAAAB4BAAQFcAiAAAAIDCALQAAAEBgALMBiA1gJgAAABAYwHwAAAAgMIB2AGIDGAcAAAB4BAAAAAAhAbQBEBvAKQAAAEBgAEsAAACAwABOByA2gKsAAACAwAC2AwAAAIEBjAEgNoAuAAAAIDCAWQAAAIBHAABRAUwCAAAAAgN4FQAAAAgMYDEAsQGsAgAAAAID6AAAAAACA+gDIDaA8QAAAEBgACsBAACAwADWAeAGAAAAAKICuBQAAAAIDGAhALEBTAcAAAACA+gHAAAAAgMoAAAAAAAACAqgFwAAAAgMoAcAAAAAAICoAH4LgNfA5A1XMvkeAFKU4+8FVDP5GwCkaEL6yedXM/nDDQcwrpo1dqaf/MZqJv+hGyBFJ6Wf/MtqJh9aB0CClqef/JlqJi/P8QhI0ZTUgy+raPDye26AFP0t8dz9a6sCsP5VAFK0K+3c95SV9TkAKbpudtJ3wPXVAei5AYAUbUj4yyHj55YVtn4mACm6P9nQiw+UlTa3HYAkn6ksSjPzlifLihveDECK9p2XYuS/fqesvp0AJGnt5OP9D+OWXVyOSmM7AUjT3TvP2PS//zVufF/HqsWTumZ1bb/q9CWntI9rnz9zy6LVj62+5K6lFwwOTBy44spNZ0+46fzN118zdd4N0x6f8vqpdy64thy19h54cddZJ9e9qQPjOuoNQNm77cQBAIJ38AMAgvfZ29MBiN23swCI3dil9fk6WKPRtilugNjtWw1A8DfCSQDEbkE/ALG7EIDYvdwPQOzOBCB2LwEQu95JAHgGABC4pwCI3VoAYrccgNj19AMQuzEAxK4dAAAAAAAAAAAAAAAAAAAAAAAAAAAAAAAAQAAIAAEgAASAABAAAkAACAABIAAEgAAQAAJAAAgAASAABIAAEAACQAAIAAEgAASAABAAAkAACAABIAAEgAAQAAJAAAgAASAABIAAEAACQAAIAAEgAASAABAAAkAACAABIAAEgAAQAAJAAAgAASAABIAAEAACQEcCYJz1HFt737/7L7868aja8/R9H47KrG1ugLT1frFiYnFsrTztp79zA7R2Y/94SnFcbXpgqxugZXvmhUuL4277oW7/CGzJrvtzX5Gkmbf2ANB6bVhSJGvjVgBarcv6ioQNfghAa/VOf5G0JRsAaKVeKVK36ufeAlro/i/S1zbsBmiVDq7KAKCYMwRAa3Tu/CJLDwLQGn1QZOoWAFqhuf25AMweAqAFurfI1gMA1L/v5jv/om8YgNo3JyOA4gWfA9S9sTnPv9je6waoef/ICqDYAUDNm5oXwKcA1Lvlec+/uACAend5ZgDFXgBq3am5ARwEoNZ15gZwGQC1bl5uAJ8AUOsuyQ3g5lEE4PcCDt/23AB2+SSw1o3JDeAEjwAAAAAAAAAAAAAAAAAAAAAAAAAAAAAAAAAAAAAAAAAAAAAAAAAAAAAAAAAAAAAAAAAAAAAAAAAAAAAAAAAAAAAAAAAAAAAAAAAAAAAAAAAAAAAAAAAAAAAAAAAAAAAAAAAAAAAAAAAAQAAIAP3fZucG8BUAtW5zbgA7Aah1k3MDuByAWpf9j0Y9DECt25kbwAYAat2BzOc/vhuAWtfdlxdAZwlAvbs9L4CvAah5J+UFsByAmpf3r0fPKwGoe2fkBPAEALVv7PR85z9QAhD6s6CHAWiBdq/Mdf7XlAC0QityAfgIgJZoaEKe8/9XCUCLvAq25zj/N0sAWqWLO9Kf/4ShUQcwzskeaQsWJ38DXF7N5G1ugCQ9uSXt+W/cVtHgHgGJOndayvN/sbcEoMXq+WWy41/3bHVjA5Cul85J8zMgzz9UAtCafdTZf7zH/+p7w5WODEDaZuy5d92xn/6YC1/bW/HAXgOTt+3ZT898brDr6I6+/exlv7/zm1GY1mtg8DwCAAAAAAAAAAAAAAAAAAAAAAAAAAAAAAAAASAABIAAEAACQAAIAAEgAASAABAAAkAACAABIAAEgAAQAAJAAAgAASAABIAAEAACQAAIAAEgAASAABAAAkAACAABIAAEgAAQAAJAAAgAASAABIAAEAACQAAIAAEgAASAABAAAkAACAABIAAEgAAQAAJAAAgAAaDDA9huPc2vbwQA/dbT+LYWI7XVgprebSMCWGNBTe/bEQH8woKa3m9GBDDZgprenBEB9HXbULObUYzcE1YU+QlQFANW1Oi2dR0GQPGUJTW5mw93/kXbkC01t90dhwVQ/NOaGlvPycURtMOimtqjR3L+xfaDNtXMniiOrK5v7KqJ7S+OuHdsq3l9VRxFV2+zsGa1ZrA4qtputbMGtfWr4qib8PWwxTWj4UOnF8fUxPP2X2d9Ld3utWvemjbSGf8H/rRWlvwoJc4AAAAASUVORK5CYII=;" parent="1" vertex="1">
          <mxGeometry x="680" y="384" width="24" height="24" as="geometry" />
        </mxCell>
        <mxCell id="6lzwClU7MQIf-u7hIdwC-25" value="" style="shape=image;imageAspect=0;aspect=fixed;verticalLabelPosition=bottom;verticalAlign=top;rounded=0;align=center;fontFamily=Helvetica;fontSize=12;fontColor=default;fillColor=none;gradientColor=none;image=data:image/png,iVBORw0KGgoAAAANSUhEUgAAAgAAAAIACAMAAADDpiTIAAACkVBMVEVMaXH/ZAD/ZgD/YAD/ZAD/ZAD/YgD/aAD/ZgD/ZgD/YgBMaXH/ZgD/VAD/YAD/ZAD/ZAD/XgD/ZAD/ZgD/ZAD/aAD/YgD/WgD/ZAD/ZAD/ZAD/YgD/ZgD/ZAD/gQD/ZgD/YgD/YAD/ZgD/ZAD/ZgD/ZgD/ZAD/ZgD/YAD/ZAD/ZAD/ZAD/ZgD/ZgD/ZgD/ZAD/ZAD/aAD/XAD/ZgD/agD/aAD/ZAD/ZgD/ZgD/ZAD/ZgD/ZAD/bAD/ZgD/VAD/ZgD/YgD/ZgD/ZAD/ZgD/ZgD/ZgD/YgD/ZAD/ZgD/ZAD/ZAD/VAD/ZgD/ZAD/ZgD/ZAD/QAD/ZAD/YgD/ZAD/ZAD/ZAD/ZgD/ZAD/YgD/ZgD/ZgD/ZgD/ZgD/ZgD/ZAD/ZAD/ZAD/ZAD/ZgD/ZAD/ZAD/ZgD/ZAD/ZAD/ZAD/ZgD/ZgD/ZAD/ZgD/ZgD/ZAD/ZAD/ZgD/ZgD/ZAD/YAD/ZgD/ZAD/ZgD/ZAD/ZAD/ZgD/ZgD/ZAD/ZAD/ZAD/ZgD/ZAD/YgD/ZAD/ZAD/ZgD/ZAD/ZgD/ZgD/ZAD/ZgD/ZAD/ZgD/ZgD/ZgD/ZgD/ZgD/ZAD/ZgD/ZgD/ZAD/ZgD/ZAD/ZAD/ZAD/ZAD/ZgD/ZgD/ZgD/ZAD/ZgD/ZAD/ZgD/ZgD/ZgD/ZAD/ZAD/ZgD/ZAD/ZAD/ZgD/ZAD/ZAD/ZAD/ZAD/ZgD/ZgD/ZgD/ZgD/ZgD/ZAD/ZgD/ZgD/ZAD/ZgD/ZgD/ZAD/ZAD/ZgD/ZgD/ZAD/ZAD/ZAD/ZAD/ZAD/ZgD/ZgD/ZgD/YgD/ZAD/ZgD/ZgD/ZgD/ZgD/ZgD/ZAD/ZAD/ZAD/ZgD/ZgD/ZAD/ZgD/ZgD/ZAD/ZgD/ZAD/ZgD/ZAD/ZAD/ZgD/ZgD/ZgD/ZAAWuWYOAAAA2XRSTlMAXoEYm0ASGhjfGgAKCAhSKhLr+TIQLA5Q+UI6PvUC5x4QHjTTPBz9HGpEFr0E8f1YIApcDBYoSuvFek4GMgJIDO2RLCJsNscoYtkGWtUk7QTRJredLkYwMBQqNmY49+84PPcgTDR+q6HZ8/NQTIEmw2BIFMunhVax47dUucNyhSKDPqNk1+mps+WtQm7JaHyXz8EuXInfi5n170oOr1avQJOfUtdGj1qZ43jdoV5Ug+HlzW6bdrXp1dvLjZXJYJG1lSSHavuf4WS7bDp4x7+rdM+5zYuPdHxwOFln4AAAAAlwSFlzAAALEwAACxMBAJqcGAAAClpJREFUeNrt3elzVuUZwOGjUSJMhnwhQIBhh4wKjUS2IkZsUBRUZFTE4BpcwR2XqoMVRVxHp7ajQFWmOnUdP7gRrLUdW2tX7TKl7flvOp1+btie5+S8575+f8E993PNczjvm5CiGLGuew7tv293ecztm3tgz8dbitHoxh/cv+OhY5/82s8WvLHi/CJ0s9+7u0zSwVfmVDv54nu+f22SyZffekfY47/qy+4yXQeurG7ylY8uTzj5wbNCHv+kB7aVSeu9f3U1ky/c9W7ayctvpsU7/ytmlMnrvqiKycesST95+dbCYOc/eajM0efT88t9N8vk384Kdf4rykz9PffkG3NN/vLsQOf/SJmtr/NOPrg12+Rzx4c5/5uG8gEo/51z8lkPZZx8f5TzbxvOuMWyZ0q+yafvyDl5eXMQALdk3WI5Y2W2yR/NO3nPxBDnP9ibd43lebkm71ifefKnXQC1vgJ25p68nBrg/AeybzHXFTBmb/bJXwoA4FB+AHPzTH51/snLRc0HMLaCNbZnmfxABZN/3Pjzn1jBFsvnc0w+vruCyRf4EDhFf8jy9UUVk/dMajqA16pY477WfAf4b/OaDuC+StbYkWHyTyqZvLPpAGZUssalGSZ/upLJT234+S/srWSNOb4P+KKSye9s+hdBlWyxzPGjQe9XMvmXDQfQXg2AE1r0A4yyfAeAFP0YAAAACAzgTAAAACAwgLcBiA3gIgAAACAwgDMAAAAAAACICuB1AAAAIDCABwEAAACPAACiAngEAAAACAygEwAAAAgM4E0AYgOYDAAAAAQGcDsAAAAQGMBZAAAAAAAARAVwBwAAABAYwI0AxAawDAAAAAgM4CcAAABAYAD3AhAbwDkAAABAYAA/AwAAAAID2AhAbACnAQAAAAAAAAAAIQE8B0BsAFMAAAAAjwAAAAAgJICTAYgN4HEAAAAgMIBpAAAAQGAANwAQG8A8AAAAIDCAqQAAAEBgAH8CIDaAawAAAIDAAK4HAAAAAgPYDEBsAOcDAAAAgQHMAQAAAAIDuAmA2AAmAAAAAIEBnA0AAAAEBrAJgNgArgQAAAACA/gRAAAAEBjAFQDEBjAAAAAABAYwEQAAAPAIAAAAAEICGAQAAAAAACAqgAsAAACAwACWAhAbwF0AAABAYACXAAAAAIEB/BqA2ABWAwAAAIEBPAYAAAB4BAAQFcAiAAAAIDCALQAAAEBgALMBiA1gJgAAABAYwHwAAAAgMIB2AGIDGAcAAAB4BAAAAAAhAbQBEBvAKQAAAEBgAEsAAACAwABOByA2gKsAAACAwAC2AwAAAIEBjAEgNoAuAAAAIDCAWQAAAIBHAABRAUwCAAAAAgN4FQAAAAgMYDEAsQGsAgAAAAID6AAAAAACA+gDIDaA8QAAAEBgACsBAACAwADWAeAGAAAAAKICuBQAAAAIDGAhALEBTAcAAAACA+gHAAAAAgMoAAAAAAAACAqgFwAAAAgMoAcAAAAAAICoAH4LgNfA5A1XMvkeAFKU4+8FVDP5GwCkaEL6yedXM/nDDQcwrpo1dqaf/MZqJv+hGyBFJ6Wf/MtqJh9aB0CClqef/JlqJi/P8QhI0ZTUgy+raPDye26AFP0t8dz9a6sCsP5VAFK0K+3c95SV9TkAKbpudtJ3wPXVAei5AYAUbUj4yyHj55YVtn4mACm6P9nQiw+UlTa3HYAkn6ksSjPzlifLihveDECK9p2XYuS/fqesvp0AJGnt5OP9D+OWXVyOSmM7AUjT3TvP2PS//zVufF/HqsWTumZ1bb/q9CWntI9rnz9zy6LVj62+5K6lFwwOTBy44spNZ0+46fzN118zdd4N0x6f8vqpdy64thy19h54cddZJ9e9qQPjOuoNQNm77cQBAIJ38AMAgvfZ29MBiN23swCI3dil9fk6WKPRtilugNjtWw1A8DfCSQDEbkE/ALG7EIDYvdwPQOzOBCB2LwEQu95JAHgGABC4pwCI3VoAYrccgNj19AMQuzEAxK4dAAAAAAAAAAAAAAAAAAAAAAAAAAAAAAAAQAAIAAEgAASAABAAAkAACAABIAAEgAAQAAJAAAgAASAABIAAEAACQAAIAAEgAASAABAAAkAACAABIAAEgAAQAAJAAAgAASAABIAAEAACQAAIAAEgAASAABAAAkAACAABIAAEgAAQAAJAAAgAASAABIAAEAACQEcCYJz1HFt737/7L7868aja8/R9H47KrG1ugLT1frFiYnFsrTztp79zA7R2Y/94SnFcbXpgqxugZXvmhUuL4277oW7/CGzJrvtzX5Gkmbf2ANB6bVhSJGvjVgBarcv6ioQNfghAa/VOf5G0JRsAaKVeKVK36ufeAlro/i/S1zbsBmiVDq7KAKCYMwRAa3Tu/CJLDwLQGn1QZOoWAFqhuf25AMweAqAFurfI1gMA1L/v5jv/om8YgNo3JyOA4gWfA9S9sTnPv9je6waoef/ICqDYAUDNm5oXwKcA1Lvlec+/uACAend5ZgDFXgBq3am5ARwEoNZ15gZwGQC1bl5uAJ8AUOsuyQ3g5lEE4PcCDt/23AB2+SSw1o3JDeAEjwAAAAAAAAAAAAAAAAAAAAAAAAAAAAAAAAAAAAAAAAAAAAAAAAAAAAAAAAAAAAAAAAAAAAAAAAAAAAAAAAAAAAAAAAAAAAAAAAAAAAAAAAAAAAAAAAAAAAAAAAAAAAAAAAAAAAAAAAAAQAAIAP3fZucG8BUAtW5zbgA7Aah1k3MDuByAWpf9j0Y9DECt25kbwAYAat2BzOc/vhuAWtfdlxdAZwlAvbs9L4CvAah5J+UFsByAmpf3r0fPKwGoe2fkBPAEALVv7PR85z9QAhD6s6CHAWiBdq/Mdf7XlAC0QityAfgIgJZoaEKe8/9XCUCLvAq25zj/N0sAWqWLO9Kf/4ShUQcwzskeaQsWJ38DXF7N5G1ugCQ9uSXt+W/cVtHgHgGJOndayvN/sbcEoMXq+WWy41/3bHVjA5Cul85J8zMgzz9UAtCafdTZf7zH/+p7w5WODEDaZuy5d92xn/6YC1/bW/HAXgOTt+3ZT898brDr6I6+/exlv7/zm1GY1mtg8DwCAAAAAAAAAAAAAAAAAAAAAAAAAAAAAAAAASAABIAAEAACQAAIAAEgAASAABAAAkAACAABIAAEgAAQAAJAAAgAASAABIAAEAACQAAIAAEgAASAABAAAkAACAABIAAEgAAQAAJAAAgAASAABIAAEAACQAAIAAEgAASAABAAAkAACAABIAAEgAAQAAJAAAgAAaDDA9huPc2vbwQA/dbT+LYWI7XVgprebSMCWGNBTe/bEQH8woKa3m9GBDDZgprenBEB9HXbULObUYzcE1YU+QlQFANW1Oi2dR0GQPGUJTW5mw93/kXbkC01t90dhwVQ/NOaGlvPycURtMOimtqjR3L+xfaDNtXMniiOrK5v7KqJ7S+OuHdsq3l9VRxFV2+zsGa1ZrA4qtputbMGtfWr4qib8PWwxTWj4UOnF8fUxPP2X2d9Ld3utWvemjbSGf8H/rRWlvwoJc4AAAAASUVORK5CYII=;" parent="1" vertex="1">
          <mxGeometry x="800" y="384" width="24" height="24" as="geometry" />
        </mxCell>
        <mxCell id="6lzwClU7MQIf-u7hIdwC-26" value="&lt;font style=&quot;font-size: 9px;&quot;&gt;&lt;b&gt;MONGODB&lt;/b&gt;&lt;/font&gt;" style="text;html=1;align=center;verticalAlign=middle;whiteSpace=wrap;rounded=0;fontFamily=Helvetica;fontSize=12;fontColor=default;" parent="1" vertex="1">
          <mxGeometry x="250" y="362.69" width="60" height="25.31" as="geometry" />
        </mxCell>
        <mxCell id="6lzwClU7MQIf-u7hIdwC-27" value="&lt;font style=&quot;font-size: 9px;&quot;&gt;&lt;b&gt;MONGODB&lt;/b&gt;&lt;/font&gt;" style="text;html=1;align=center;verticalAlign=middle;whiteSpace=wrap;rounded=0;fontFamily=Helvetica;fontSize=12;fontColor=default;" parent="1" vertex="1">
          <mxGeometry x="374" y="359" width="60" height="25.31" as="geometry" />
        </mxCell>
        <mxCell id="6lzwClU7MQIf-u7hIdwC-28" value="&lt;font style=&quot;font-size: 9px;&quot;&gt;&lt;b&gt;MONGODB&lt;/b&gt;&lt;/font&gt;" style="text;html=1;align=center;verticalAlign=middle;whiteSpace=wrap;rounded=0;fontFamily=Helvetica;fontSize=12;fontColor=default;" parent="1" vertex="1">
          <mxGeometry x="495" y="360" width="60" height="25.31" as="geometry" />
        </mxCell>
        <mxCell id="6lzwClU7MQIf-u7hIdwC-29" value="&lt;font style=&quot;font-size: 9px;&quot;&gt;&lt;b&gt;MONGODB&lt;/b&gt;&lt;/font&gt;" style="text;html=1;align=center;verticalAlign=middle;whiteSpace=wrap;rounded=0;fontFamily=Helvetica;fontSize=12;fontColor=default;" parent="1" vertex="1">
          <mxGeometry x="610" y="360.34" width="60" height="25.31" as="geometry" />
        </mxCell>
        <mxCell id="6lzwClU7MQIf-u7hIdwC-30" value="&lt;font style=&quot;font-size: 9px;&quot;&gt;&lt;b&gt;MONGODB&lt;/b&gt;&lt;/font&gt;" style="text;html=1;align=center;verticalAlign=middle;whiteSpace=wrap;rounded=0;fontFamily=Helvetica;fontSize=12;fontColor=default;" parent="1" vertex="1">
          <mxGeometry x="730" y="359" width="60" height="25.31" as="geometry" />
        </mxCell>
        <mxCell id="6lzwClU7MQIf-u7hIdwC-31" value="" style="shape=image;imageAspect=0;aspect=fixed;verticalLabelPosition=bottom;verticalAlign=top;rounded=0;align=center;fontFamily=Helvetica;fontSize=12;fontColor=default;fillColor=none;gradientColor=none;image=data:image/png,iVBORw0KGgoAAAANSUhEUgAAAgAAAAIACAMAAADDpiTIAAADAFBMVEVMaXHKGxHZKx+1GgWjHQ67GwnaCQCjHhClHhCjHA7bKR3ZKx+kHA+kGw2jHBDZKx+kHRClGw/ZKx6lHRCnGQnYKh9MaXGkHRDYKh/YKh/ZKh7ZKh+lHA7YKh6lHA+kHA/ZKR7YKh6kHBDeKR7ZKx6lHBCkHBDeISHZKh+kHA6lGw6tFw+lHBCkHBCkHA7WKh6lHBDZKBykHhClHA+lHBClHBCjHBCkHBCkHBDZKh/ZKh7eKhzYKx7XKx7ZKh+mHRDZKh+kHRC+HxKqHg3ZKh6kHRDZKh7ZKB7ZKh6lGw6kHA7ZKx7ZKxzYKx/NIxbYKx7ZKh/ZKh7ZKh6kHBDZKiClGBCkHBClGw7bKh6lHBC7HRLZLCClHBDOJxrYKx+lHBDYKh+kHBCkHRCjHBCkFg6lHBClHhClHRDYKR6lHBDZKhzXKiCoHBDYKh7YKh7bKx/XKiDXLB60IBOlHhDXLCDXKiDZKiDXLB6/JBanGgzFJhnHJhqtIBLJKBqjHhDPKBylHhDZLCD///+tIBR6DADVKh7TKh6pHhKnHhC9JBfXKh6tIBLNKBy3Iha/JBjFJhrPKBzLKBzHJhrBJBixIBS5IhazIhTRKh27JBarHhKvIBTDJRjDJhqREgi1IhTZKh6rIBKnHhK1IhbSKBzJKBrXKh/JJhqzIBTLJxraMielGw+7Ihb//f3dRTrbOS7/+/q2HxT52tjhV03kZl7smJLeST/ZLiL30M6tHRLpgnrofXb99PP54N/zvrv97+3hW1HlcWngUUf0wr65JBb76unbPTK3IhTJJhz98fHdQTXqiIH2y8jphX3ndm741tOTFAjjX1buoZzvpqDytbH++PffTUPZMCTvqaT74+Lsk4zFJhivIBLxrqnXLB7jYlnrjIbla2PbNirwq6frj4l9DACFDgOdFguNEQaBDgKiGQ3tnJb75+XnenLhXlX99fX1xcL75ePxsa3zubb1yMXbNiztnpnzu7e5JBjlbmb53dvxsKvtlY+zHhKvHhKTEgh6CgBoDquzAAAAgHRSTlMACfEHZgwDzc00I79QJPV+2C/l8BijAN+0+Z1WY46Ig0dzpBfF45gOX0I9ELvEV+72LemU02vscLDf2B31zJZez5wbKmr7hThbSHZMNOoS1IpkqsG5Hrg2Kq0VaHs+ecnbjbTcIOV4q1FaPPn+baw+ZrvfkUDh+YejKObt1+/PzTWk0HkAAAAJcEhZcwAACxMAAAsTAQCanBgAACAASURBVHja7X0LeFRVtmYhAldRRIEPh0ZQfIHPFkXt9tE6dtn4anyidjvq9f0Ybb224/Xevj2rElIkQ0ioGCoQqvnq5EtdPqYBB5DDgCAo+qE8vIgaH+1B0XvnobTtO9LOfDPfqaSqztl77VOPs/beVWH/iSFWHlU5e521117rX/+KRAwMDAwMDAwMDAwMDAwMDAwMDAwMDAwMDAwMDAwMDAwMDAwMDAwMDAwMDAwMDAwMDAwMDAwMDAwMDAwMDAwMDAwMDAwMDAwMDAwMDAwMDAwMDAyqAUMeemDyI0ccM+bR4cOHD7/+8skPHW+uyYGCk6864ugnYxwuvGjcz39hrs4Ax/HTL54RC8Lw2682V2mg4thjLokVgxOLHXT0I2eZizXgbv3Hjr4wVhqcWCx21LXGEQwg3HL7RbGyMeOIQ82VGwi4+qmfxirEJcYGan/1fxILhUuOM+fDmsVZl98ZC4/M45OHmGtZg6f9Ry6JObYTo8CFY35rLmhtrf70R2O0+MkRF5jLWiMYNPnGmAw8Pt1c21oI+y4+KCYLZx5jTgVVnu457pKYXAyfbK5yteKXPz8hpgAHHWOShNWIY69/OKYKJjlQdVH/7T+JqcWNJiKsopt/TF8FRymcgy42NcNqwKFPHRXTgYztxC567GSzAAdC3BeQIxxnSETaMGT60Q/H9OOSnxs3oANXXX9hrEpw4biHzHooTvgccVSsqnDn7eZgqPDmPzpWhTj6AbMyam7+J2NVimueMhVDyRj6wNH/LlbFcG58YKhZJWm45ZhryluPTTrcwOXGDcjJ9j5S/pH/q/3bVmiwAUMcoHf9V1VU6lm+rO7Zr1ZrMIEzj7nFLBqh67+20kPfx3V1dXWf/fBaxaWCV/ZUagMXmfwQkev/9UWV34mvvOVaQN2yl77vqeSnd2xftr7yJ3/4+mNNRBgWD40Ll+/7tq4fL3+7pryffG3b9rq6uueXhnr6o54yHLIQ+OVxM8Juxiterctj+76SV3P5h2uXZX9md3gO2XTjBiqM+x6lKPV8UufB87tfLGX1P3k9/xNrCF7CNdcaN1A2yKr8S1+u8+H1dXsDv3/Neys9372dKD/0+I+MGygDg64jrPKvq2Pw1pe7RN/74g8r/d+7M0OXJjZuoET8dtyFNiHBy363jsOGD1/hv+/F5zaw3/eCTZkmHm7cQHFccMRPYsQEv511CJ79brXPylZ9uwH5rk+p08QmGgjEkMnDJXA7MyvrUHz23PJcyeCNL9DvWLZcRmPJYLPQOK4eJ6mna3WdAMv+srkntmv3y6KvvySnscSwibGb/7GLYtKwvU6IF14Wf63uI1kv6KLHjOKAmpu/f4OvqwhfGBqhonyf7IbO2HcVGcAncl/UjON+aRY/MvhHKig+by+rYP2fXWFLflkPX3/sAV/qOSimAs4HFRjAmype2ZMHsPDI8e6RX1FL3/JnyzeAPWpeWuzGHx2QpR7F7M5vy17/DQpphAdcfuiCy1X3dewo2wC2KX19J0wedOAs//THFa/+n995tez1f+sbxS/yQMkPHXrtNWov7JrnNlRyBvxAA5X0ol8PdBrh4OnD1V7SFTvWVpYEqlsV04GB3W1+y8UHKb2aPZs3PltXKVZq6Shw80MDlE08eLJiKYddH79aFwrLNm7u0eMGxjw0AG/+MxVv/F/UEeCF3as0uYFHBpIbGDT5BKc2Nn4E+z95RZMbGCjRgKp0b44EGmbjF7AGdi7VYgOXDAA3cMERd6rd+D94vk4Cnv/4z5rcwG9r2/UPd9Ru/J/VScOG917TYgO1Wy06S+2h75Udr9fJxbKv9+nZCoZPr7008eDpSg99S3e+tKxOAT7/6x4tJnDQxbWlT33BU0rTvXvkbPwCnthzy7XYQA1FhD+6UfG1WfH2rs07nvt449ov3lJiA2vX79ViAzUREd5y7TXqdZsL2Lvmz5vX/fDOd2vf/VymCbz15mpbx5/30yp3A4Mma1bu7UO/Aa7Z9H3WFjbQbxCfb/j6Uz2lgmrOD/1mXNVotzLm0LN81Ufr39v91fb94coDz6/8ywc/rF/94gqtf9CMR6qRTXzo5T+J1QRcW/ihvHV/deVLH7+3fvXbe73+RScefvSq6mozPfm6E2wnVkP4uKRK0Osb33lv3541S6vxL6gm7ZlfjLkwFsvU0vr7hGPYdM/Lr2/c/cnOXWt6qvxvcB6vClHSQdddFKs9ZNYJln/dmlr6M47SLkp66DEH1ZbvzwNvGX9XriPLzCP/lTpnV5183XAnVpvLH4utWqacCh5v6fzDv8wnNjEndo0mUdIHxsRqGlgc+Lm8eC/T3VVfX/+HWbP+1/9OkP9y9aKktxxzZqzGgcWBuyXe/PX1fQYwa9asP/w3+p1mzFUqk/3DYwMAfBy4bE1Gzs0/t74ffQbguoF/Jn8aVfrUv6y2aT0Vr8tKJYowuZvfZwCzZs36n0vi5M91wnTp+kNXjYnVbNxXNA5cLfPmZw3AdQNtxPGgEztIqhu4+hhpN//eV5a/uGrXR5v37fjwh092rN/50Z5NL655TXLVlYkD35V68/MG4LqB/0PoBvoP5LLaTAmEmxG8tmnnex98/cUyYVpu7ZfP7duzXE7tlYkDd0i9+VEDmDXrX/9HG/nfdeHF9BXDY6/vczF02LRj90v7SyZwvPv1xx/uIXcIvjjw+aVSb36BAVC7gX7MIB1jePztfdxuh+ZG7Fm1/uPXK+HuL9vw5bZNpEd1bxz4Bt2vxW5+sQG4buAZev9GJTxCKuVhv71v99pwvK1lKz9Yt4qqULPKewakuvmf6ayvL88AXDfwf2ndQDYiHBO+anzotYRx36bdL1M1any5einJflSIAzfS/I2J3voAiA3AdQMtxFli24kdFE6O8FhCeueqN2i7Nl79YA/BjlSIA/dIvvmLGsCsWbP+7b/TRwOxOyvtLDn5sZ+SvYi3K1PpKIKXd4cfDJmLA/fLvvlLMYCsG5CQZjn62MoyPlRYLa9rY23YZh2nPw5cJ/vmL80AXDewkLpo7MRid/68vLD/crrGjhXb3pVK0n8hZKPGKoozYAk3f8kGMGvWrH9poi9KPPlI6RSvRwmf9/sNdbLxwrpQh4JsHPit9Ju/HAOYNevf/mMzuQkcNV19wm/VdiWtOvvD6Lq7cWDlkyEypd785RmA6wb+SO0GnOHFiKRDj73+YcIn/Ga3ko7N7CEuxD6wrvIzYDyVrK+XZAAy3MDDgdHgycSF3lWf1anD85vD5AP3yL/5KzCAWbP+HzmF7Drh8g+5nZjks+PZOqV4o+JIYNV+BTd/RQbgFo3/Ky2FTHQcOO5M2orb0q/qVGPta5UeodcouPkrNQByCtkD2N7/a/JC/zt16rFdUQ9PRTd/CAOgZZKeyRNIf0sv5PRpnQ5sVNCzXenNH8oAsm6AKk18Oxv7jaO/St/X6cEP1XvzhzUAOibp4wzDW0JX797PNBnAW29LJSw299aHQygDoGKSPukv+MmQ8tpWpwt/rdqbn8QASChk/9mX9n1YxrVaqc0APt/rVOnNXz0G8Pfeqo+UBp8Vdfqwulpv/qrZAuLjPQZwuZS7ZZNGA9hWrTd/tQSBmfaDPQYgp8NvnUYDeId+/bvqq8EAqI6BLeAxgAvk7JerNRqAjIOggONdk4mgFHgN4D/IWH7HflGjAeyTk/0REr1rLBXcBD4DuFmSIMYX2tb/WWk6riRuQHMxqKEL/AZwSELOxfpBmwFsjMkDgRvQWw5OpIE1gKScS/XKC5rWf9mLcqsBYd2ATkJIpgmAMwDolnOh9mkygE+lt66HcwMaKWH9tz9rAFZcznX6QMv6r1VSDw7hBrSRQhvmA6AGAHPkWEDPXzSs/wZV870qLgmXZgD/Sk4Lb50NIgOAdIeUa/TNBuXr/7xKkccyuODaG0M6lgCIDQAsOXHAN6p9wH7VkzwqcAM6WsPiCwACDQCgRcr1sb9VewDUoOFethso3hxKnZnJtDRCUQOALimBgLNaXULo+XUxPSjPDShtD89mftMAJRgAWK1Srs7eNxR1hmx8LaYN5biBQIEI+rRs20KA0gwAICnnNPD2mwpMYPuumF6U7AZUSsQ0PIMuv8gAABZIMoHvJJvAWt3LHyudMqJMJCoWb2oEKM8AoLFFTm1o+bevSlv9t758MVYdKCk3oEYmzl1+EENoAACzF8m5OEvXy2EJfqZptHvFbuAPKm7+WMcWgMoMAGDh+5IqxCv2fUc71XHZ1zuWx6oNxdyAVKnYfnQvAajcAADSKVlXZ+/mN6km+L310voVsepEoBuQLBbtJn3nAIQzAIDZLXFZV8detePNsMmBFzZ+smtprIoR4AZkysVnlz8NEN4AAKApLvECvbb5jQrFIpetfGdfTUx1ErkBeQMjRFmfCg1Asgm41PFtX60shzby/P6X3tuzN1Y7QN2ApJEx2civyQIgNACAroT0i7R0za6dn+z+bu3LQrXw7PDG/NDO2gLiBuiHRvXvOm1JKBmlGgDAnJSycZDZeQF7Ptq8HpsXULsTKvxuoLNlnpRnyYhyfmENAKCxqSNmEAsxPbbgBrpaHSmExXjJvr8CA3CLBIkDeOVXbFr/6cb9z4biGtvZ1rLeZlvK8hdJ+hAYAEB6UcMBt/I9b3//yQdr+6PUF1aE2oRsO94Wl8NWTnQByDeAA2sneG3Xujde2uCLSleHC4WcWEzO8r8/B0CNAQDA4gG/E/S8uPm9L9ciucq/VmUQGm+ZDaDQAAA6U5kBuvTL9+zY/Rfh4KovqvEImlgMFaNSAwCYPdB2gqWrdv7w5uufB2cfN1Xdy24o79hHZwDumaBtQKy8s2b1tne+LmmAzRvV9to7tjQCaDMAqaUiJRmnVfue+2pl6aWIDUurKwIoJ+UnxwDUJInps2U9az768OPt5U6tWraqqnx/ieUe2QagNEkcHq/8ef23G/dXJl39QxX9HQE0P+UG4KYGqn8ncLM5f10bplV9pV01f0zzXCACjQFU906AZHMq0htZUy0BwNYkQNUZAMCc96vuYOdmc16nYp5tq5K/KjUHoCoNwE0NVMtOsHx1UDanso6DGk/5qTAA/TuBs3TVzufefP0tetL559XAOm7eAtSgNgCAhZrKhaVncyrC+io49bcD1IABAMD8ZpXXZe+m8rI5FeEvA873yzQAgPqUIjewbrsSDbJX9TYdZdqSIAmSDECZG8is+uAtBQbw/UC8+SUbgFsyVnJ9VmyTrkD0pc7ArwtkYrxEAwCwFJ0L98jtOn/5G305n3aQi8OkGoA68tBrP8g7ANTt0pQCdGhzPigOkW0AimpFTqxn89eS1n/3ANz6cxgZkW8AAI3z5ym5ZGvekCE+sUFL82miC1RgmhIDAID2NiUl473rXyeXnNZAAmhQ4PuzuCGiygDUkYc2/ZX2XPic8uXvICr1F8fUmxQagFso2KrEDaz4kPBcqJoEIDHnw+HEe3xTI49U8JRpRW5g9Uaic6FiEoCSwC+Hsf71jwxW87Rz1ZwLlz9Hci78cAAGfrn9/1R2bvg5ip554TNKCgU9O7eHJwH8F3W+v7VT5fLD2dzc+Mh4dc8+V0298O3d4ehA6kgADSp9PwDcOyWC4ByFr2COmnrh3nVhRAlVkQA6mkAtLh2CrX/knlEqX0TjFjW9ZZverPRcqIgEEKa1ryLcfUpEgCk/VvtKkt1KzoWvfPJu1ZIAGhYtVLz8cFtEjEPOVfxi0oqYIx+9VP65UAEJYN78RtXLf/49kSDc9HvVL0iV3sTyT8vkDsknAbS2q77YcPrNkSIYPCGq/FUl1RQKenaurSISQFxx3O/i94dFSsApY5W/MFViA87b73xeHSQAtTmf/szv+EiJmAAasESN2MDeHSv1kwBa69Vf37HTIqXjyGE6TEBVvXDXm8/qJAHEWyz117b9H26/IFIOHhyrwwRU1Qtfee8zXSSAjgWNGrxrlpBz0e3Hl2EBg68cpcUEFqpxA/b3gedCWSQAurbucmLsAh/r8cmDSjeBU287F/S4ATX1wjXfvqCYBKDh2AfA5FsvHHdW6SYw6Lx79ZjAQjXpoaX71qojAcSbZusIq5ALecL0MnaC8SP1mICq/sIXP35LBQlAJc/Hs/wixYYnf12GCfzs7zSZQKcawYlvtu2XrQSgI+cTsPwujirVBH5xdCyWaIeo4rc+WIqyxHu+WiaRBDBvi47bZ06xvrwZD5Ww/A8ML+StdFgAQFLNudDbWLSO9BkTOnx/aYSbcUVW/9CnjiqcmuJNs6OWsjeIFowgrYZAZn//9TJ6EoBimld/CF2qRMcJJwcs/2+GMxfIaet0F8aKKvjYZwSFk4zCxiJCEoCWlB90lpFSnyHMDF39OB/I2nZHryX/7s+tvm8zUNNY5Cxd//pmMt+vI+cD7eXlUGbgPuCWo/Hr49jxlv41kvTusYGsKyiYwMKWmppUoqq3i9n6yw6aH8X2/jGCNIidiTm23Zbsv0fzNyvhJ8CZgyckVCs9VHPHvsrEGLizwNAjHi4SLTkdXVAI1mg/YfYC1gQ6UzXgBjq0HPsqnfLMHgWunlF8p7TteFNhfTwum+CRXBBY8Ax+E2hcMK+6l18H0yNM+eQi//pPf7jEQ5PdWg/MClpRNpSr5BHwe4GCr/GEuVUrTp5p03HsCyXQ2uxb/yPKiJjt5l7f8kULG3r/slX2iOV3BYVvKoSE6eocU5F5P60j7g/FpPpP/+hd/8fKOzTZ7sgCdq0Kjpu51Ut8xB8E+v/1nAqqLyDUE/nND5ss/51n/c8q99hsO3aiy+e28/F8YRePlveIFeWygr79IG8C1TW3LDFXQ9LHCn80TvyNxwDGVFAFd+yOXsap+zcGC5j9vugjfGaAiRdy8YBVLXPLGrSc+ilioYb0MI8BVJg+y54JuA2AC+WZVeTu9vyj4LnxgQ8x+0sFuY6CKvD9TToyvl0kp6Eu8BjAoRXXUdxgIMrlBpBoH7jNH3I7gH/7EP2Y5xsVU4nFy6+B5Al/JPmjnS7wGsAFIX6TbSd6eaftfQf/WS+f9vPYAQS5iJw3yVeKCgXDufpSA3EdSR+LKCve4FaqvVtAOCKc05CqRw733H2Mp/v8/8+ahoWGB95akZ7Ib7GG5a9vpcpYZtuSvQbwjyEr6q4b8KdvmGCfS/aDIOqzPN9cCAQ8XgTy/+Uyocp3goyWyG8JGWO6uy9y8RrA78JuKW5A2JJmojnBTc+tvT/qYz0Ivi/4yENzVU6r0VLrt+gkNTI5TRKvAQxrCf17bcfuaU36lkhQ8sUP/d5okF12/vTIJIfUjanQEvlRUqMS+ZylzwCgm+KX205HL1Pm5eNB/3YPvuIfd15k0kxsbsBbK1KhShyfX+PdMg2eP8BvAI0JGguwnZa0FRUkfYX3Phc0ercR39e5zLPHBmSnBnR0d9HqqLR5c9Z+AwAgCjEd227t7Dvg5xcod8MLE35MFompCBZufswovCaQljipJLFEA8+HNLjp8P8FrAFAS4bIApye5hyFkLtdPXF8oRjAbfKW7/QgKiKDLznQZwWyJpV0a6j2/jFOG70wv54zAEiSPaFtO6lOiAZ6fJQQyiYAgiuFlo83knMES+hZA1vVL79Fy4TMtHDBK28AsJDK47jHQrujyfIeC5EiT2F/QO5w0YnQFwWwJEIpSWINd/9C4oJnCilYIwYAMJfuyrkl434aKZLq86WIwW8k6JbBloc5L+CrEwDZuVkH1SfZTevA2lBBQtQAYHYr4RPbbsnYF9RzhX4rKmSH4OcIJGnoPRYW3MBiCuJIJqVczJE6imloEbCVcAMAqKc0P8etF9aD/6b3v0MUOe0xh36vqaCERF8JAaiOhZlnlDO9OltpfX9A4kpkAABJUtJVtl7IpXNBcFtDlMsk4edFjjQAhWiwQBwJwx/TUO2nllIPTFyJDQAgSZtcd+z4Aj7ly2X3A1IDlqd50O8iAKMjelID7RU6tHnKsz7k2rlF2hSCDIDaFTnuuTCd5/axSR/eI/C3OlYs9PkNYYYwvaiCsClZ64FfrLtY4irYAMibs90MYRIJ7CCKHfctMUsk8LDoqzoU5CbKOxY2PKM68mskT1+1Fq9YFzMA8pflpgZ608HMQBAmBPn/Y1ICXFThE5xItpZozvFU0lLu+6kzV62lBK/FDQAAqE3AyWYI8e5giAq4hcAfD0TVIsZGfLSBZPFdLdHyJ/XtHdS+P5Yq7exSkgEA0FZZHZvTGuDWHP0XkNOCVYxfzFFH5qbEYXbzMzp6+xZTF7E7Sj67lGgA1LQ7N0vspOp9lRy0FMSEByjZkM0kChiJ4NXB71zQylz0hnltTTqEHMuNTYiD15INgDy33l8vZCq+lqjDhD86IhmFojkCnxHA7HRncu6Clqb5i9vn6OD2Q5mKLqUFr6myWtTKMAAJKYqCG7Awvx1EBoEoYzF8g7HXM2AkQv2w5lP3NpXNVSzPANzMALUF5LqMgVs7JvAHfm2ZrYDdGLgUIaI+pBH085Iq0KYo1wAktOIUqMQ+9w7MrW1hbADgIkDg8sesc6gSE0huJWcrVRK/lm8AABbxTuBmCLs7o8KMIJ4uAJZ5DNhhQhg8WlHQ9yaBslRpm0IlBkDfipPdCbpAQP7huMTA5oqx/lP2hMGo0Oi0gfqUTb71VypOUKEBUOeIXQvo6dsJ2MQ+iMjDwp4iQaUJEBk6S8Nbe8KpBt8f1gAktOK4O0ESAK8FoooiFlNRirKVJgvjIFisp1D5savDtklzviFrFmEMgLoVJ8shjC9Aesu82RymZxC4cMBikoaACM+JealSJZCt3jjx8ndsCdmjFM4A6EtFbpa4NRkVdpQwDh0hk2CpAy/ljKk/SxU+9b+nUw12LEa4/pnu8PXqsAZA357vZDmEaW/2zt9VzJ3u2KwfkhXycUm4rnM5qqf+T6zehE0b+jWkKKhqBAZATh3qzxCCqKOMT/hi7SJYtIAUD6yoLNVT7yf1qbjtxCiDP6r+VBIDcOdTNFCbQE9zb36dcYkhtm9ITAxCm9CwVJIc+dOuhEN87qNrUCQyACnt+W6LKXCFQcR9W2xHgYU3lEOAkCGh2Kn/EejtIPb9sa2EVDU6AwCYs4jWDTiO3dPdxRzfPSJiIsqgb/UByQUA16ROK3bqtdOmuGPTnvvfJ1UmoTQAKQKe2aYStD3U4pPHolqyoI7E04hIxE4Lllbf2kN895NPHyQ2APKeBvdM4GTVpzjKEGDMECF3AKEZRxHzqFzsFLiyY1czdca3mV6UjNwApJQL7UQXIOkbb8ugFUwnw3pKkFJj5WKn7EtLN8V7iJ1/mwzCkgQDkDH9N9tU4nPXgpwAKjQk0KDzK1WGFDv1c1DrU3a1+36pBkDf3ZZtL+yEgB2XC/wR2THP9AF+CweOk26VLnbqs7hkwqY99UucPCvLAKTsBFkOIX/Oxw6EVhS1BHEPCRZgihoZBcpFfQZCf+yTKkQvzwAArK5EhtoGGvoDQl/shiRiIOh0zrSj42p2vJYZp3eL+I90C3XKr1kuT32mRAOQIOBp9wWEwHHHOJYYzxTEUr9CtgCIylCsgLGvOtneSr31b5XNVD9brgFk+/PJo4F4vlYkkhQWMAW5JD3ajgIi1qFY0SJ7MnB9P2nY7yhQo71CugHQz3x0Ym5qIEB0iKN+4R3FeH8JSi8XqpbmH06Tp/yUzKAZGVFgAG53ITX/vU+fnuP/op7bm5+1AsTGkOYklkYAGDHVTfm5xz7SvT9H85LMT5yiyAAAFieo40HHzRAKzveYJnVAPM9EFJw4JYg5yu5XO7tt26G8+wszaCSzkydElBkAeU9J/8wqtp/EN3EGJ4JZQQOJBBU+lpLscRjJRA9ttacjX+qXy1uF6F0RlQYQcsIhSiF07Hi+UMDF64Du4BDF1Ae4bA7WfIj1FnQ108b9GU/C16eKI+HjDYP9BjBTQT/MEvIzQd4NCDIzFkoqhiiWCuQSu4AI2nl/nDrwzwV+eZUrETOS4u2uIczc4CfUdMRJSA1kowGsc8QXB3BSdOA7GSC7hGCeWc4qmhpoA38m8LPEw/QI3pn938UUVW1xXd1y3ACrMGUFHdz8ZwO2ZAx+STLEsVDX+jOtnf6NH9jjLCBE14o/GXFGhMcwVRYAC1skRAOuKjF4ewWFGiIWri8majBCEoLJbtqtvyF/6OdTTyDgwVf2SN/vOudwZP0jl/1YYXdsF/m50BWhE5V7hPUDnxNg03xYpOh+6GqmDfw7mnxhv/dJAdXRET1Q/Hv6NrCzB0dQPKi0QXoO7WAHx3UD3Z0CoifSey5SngdR/q//y70dtCm/wvQ5nrvGVzQQeUVRNwzgrdEw7JSICNPU9sgTT//NbgWJXmTECL7SvosNbPgIfsJRjgvUG7cdQpZ3w6KF7N2PCt6gfe6A2i36PQWzH/tgJABnqNZJoMwQZuyMnROmxvpIi6SC8SOjL2doLWggvfvnzW/kb35M9kbguoQaOqx15H9gxJWRYBwyVrUJzElJOBMkuSsDWEEHEyX3+APGBtIttNXe1nbgzn34aAwQMZB5cYygOYtRa9LoSDEMuVS1BdAPe7OdnqwOIaYpyhE5UMFZJGzIOn+6eo+n2FdYfVHrk8XOWOFY7yJCjC+gPOfmSCk47F7lJkDOIYw5dkcqDdxcanycJdIcwk2vS5KSvJGcDzNFG68/ccWtIL1cppQ5++//faQ0nDpJvQXQS6a5O0GvoKTDatRbTKqFNQToIu3tba333vv4WFWLE0ZGSx14cwuSwEy7FevHJw8qzQSmjNRgAqXo+JYbDPiGmKJbfzER0lzKnzDfbwmLfbiQUcB0TcGB1d8B55Ysu/uD1wvHnVWSBQwdf68OE6A+F/qHmAJqBmiiwOM9raY4YeTfsaDRd+pnK80cr8WvjsIHrBAgnJZ7S/pqVidML8kEhkwcBVrcAD2H0HMsRHs7rCiiF9D/vhCCFAAAGaZJREFUWR/Nl4ziO7ew+AJ9UwhuaPI3tyLSR7zH6Opw6Sreq/rkz0szgSunajEB0o6CbHKoJ5EM0g0AVGQWslQvh9D5+499SHAnIqyAWCzLirIzlvxFLQvPWx7169JigWl6TACoOwrcYADYgYUBynJ9X+xKEFb7871dbJkfBPkqK4qLoonU8fgupf42BdyCZzxUfPlvOeZMR8PERBm0ATcYaErzVxNVGYH+W4eu2l/o7fLNSQW8kxXEozAEbHW8vzEd7L/GBa/+oOtO6N+32vWYALE2eVaQtsvy+QHgo4K+L1m93YRJv3zOh+d5sMlH8Cf2AZczs0RT1rw/k24t9heccHLA8t9+kCd0SWoygT8RZontTFaOtLswqQSZUJH9p7MlYRPSfOdtYTJ+3PmOXXb0sIelsUAgUAFRy41eir60GceLlv+4a5jDyxZNAxWIz4V9bPLeeogiWfOspseCblqGfyLpD/u52h0I5uTyxUyUnYhy2UrWpJuB+4DHjkJ2MfUDVOV0FLhbgd3TnOqtz26chYJvfVdLwrFpGf6pTv+ZX5B+toLaz9GEP5fR8ES36VRDyfXqR5Hl/9Gdgm8uOoRQWkC4iHqyQh+XNN7R3Jxw0ZxwAz7q5p58yi/fiSHiHolS01yvu5DRXNgb3JxfGcHrb9jlP/7GoD9pgaadoJG8t6zfBvJwiLu6Y4m5nq2f71TjaZ7ByV4kV4gM3HZrFuWdXcawt/+FRc4zqQGyE+TTRH0fnViGlORZ6O3yH+cAT/XyTQloeCrQScv/rJv0ccWoy7CAJ/3rf20JP9Kt60yQJp+vJglxL8WXH30jECvFla0QnphgeGK6v2aRKcsD/JNv/ceUWNDQdiaYm6j+5c9Nbop6kj4BkrLcjcy1owonpjH9yRUxFf9hqGf9jyidypiarckNkKsSEwPt7uEEBbFZuQHn/SKJgRB0hczvPOt/Vlk/2qYrQdi4oKNaVz/Txh/7ICqeToMpHIqUq1ARu76UX0u84jaF1B0eA7i+7NK2rnGbye5MNS7/+2nA2nvwwfYoXxGp5WND9LymkGwNUbDsaPSqhB1V/i/QVSoinllFGfn5WX4grvmickYY2RuVI+v/gstVqrxkFZ/jk4mrLNPdpckEyOfYhjz1W2yxDwRyVShjD1G8xvlg3vggHXIMRXyhXyewobLfFZ+vywTqqyQg9Cm6YAl7P8EHrwGLU8RRNCPYn/ILkb1oTjNCkf9UOdfBOoADwoYCyRMEAwsB7dANHmaI5Iy8W0hvsx2SrtCWfc1eA/i7ENak7UygOyDsn92D9PYAl+EXqhbxbR3Bx4Ls+Dkn3AC6FuAM4G/i4a6ELjeQ1rcTxLf4Az8Qks1QYTKLY3BjRwCGtgJWqiE0Va0jF737tII7Q/7WAy01kOvr5ml9gGZ5uVYOIfMP6f/KV61be0I3J2da8pfOLxY9P3waVFtqoE3xTpAf141U5vDbXtjf4+N1RTEdg1yWmKZDqbkeBAYAWzJk10U5FqqsFeUivyjwnrvI3HuGuy/o/seEabIU79A16wbfqY2Vi08SbKcJXamBxvmKdoL81Ea83AOBswTxOZjAylVwZBF38iwBY6HVX8Xh5gXM6aC8QOpZAwqyQ/nEB5PFAdFEAYiKyb3COWh+QpBVNtNDcHPWMxeMHxhhbaXZIXURR9pb5S5/YYADPsaKnSHG9vABS/sGUQt4IYCod+N+itfOUzmwiSHzaU5V2ogjlsQzQWIJ39qH1XYEPF805cMPwfK/99Lc/LE4Nm8WHRkzeyuRr2zRxRpob5Oy/N2d7NYPuCoflxECjvkrDBKZomATUYNSB56xF8wM6qIKqLt1BYTpFPmxcGsn3tYPgT3HlkiNChcx8neoWak4TYOSMDAXDo0iE/aOtyzUYwLEY8u6O0Vt/YyqiECkSZzXZTUr8wFCpTQvPkMnPpqLp4Y10g166daVIdxCFQzkqT7ojCp8fhEExPk+GUKMGBYFut7ktqDMTNDYOItO3n/e3Fo+FmZSC5l6H+AzZ5ECsF/6D7AED7cNUI4gKrz28g3AvYXITCC+QFNqIBk2Hsw1xWHdfaLMr4Uq/OICZYg6TbLVphGmKF6hKzo4kk7TOZOq13QsDDPUPn8JsVG0iOysv8NfsAOAKAfYJ0bbTHPsK4mqU8Lk0M6tZIFUs64zQXt3qK3LO74DE+LiePs49RefUen3APWp8KX+wHNf+QYA0NlNZgINz2g6E6QXVRA9Jb2nflGLVsByQpCkGytE7U7x6uomivsLclQUBkDLudBVK7LKOxbmTZVP7/QvHbDSXCAQmOd6AHBOcLa3i2T5M+//qdSrUvLwaErORbxFU6Eg2VqiHcdTSQvYrB9O34bAYVRRrLULlfhME/B8+n1/Of0a5UwPp+Rc/LOuQkEJaqSJlj+JuvusaJEUD9u6bbEC1YJR9snuHqLIr8w4q7zx8ZRTgPOyaeobClLiU0HzM4XrFwWmC6PA0OHcN+D9HMA7Bz7lE4WuZio9srJZecPKnRlFqeyura8IoHNBK/OHNMxra2r3rH1hTZFZ4SWr9URF4wwLpuC29hFpE7xfPhtrWPlDw5J0ZwKNfUXZakG6Mzl3QUvT/MXtc3zbZhS44U18Pz9EUWH+ACYQxglPtlHJ0VVWex1WydQ4ysY8fWxyAdj4XjBYzucG+LnVXFjAiPzm1Lw6qJRpmrdU9ucOq2xsIKlmT2t9VS0/4JPFAZlIz7T6AC8ExEsQ+3k+RFt/a8XltmEVz43s2kq4E/Rakgell/EmGEJu8RLd6Kw2cRuo/weISH5heTfDQgwOpdTsyU76qo7lZ5s5AobM48dDbngPFwS6hVYqIeLuxaFc3rBwk2Mpx39m3YCl/U3cnw/YQFHucfCzupFOkKg7dpgo4xu6C2NY2NHBhNOe7Hiqs4Sp95I/WsLZO96+HRAp9yATrD3HBfdDkmz8UAdBAD0s/OzohYsIFZ2b+9yARg8Awt09W6sVeArA5pRirT7u+A4a559YTBH1DqMYHm7RBQOOHU/VB2gmKXgPHCbAloLRUBFrEe+jefV2UI2gaCVKog0jmh6/mLBL30l08UKqqj4R0XzwWZNcmghwjjj0lfobiE79Dc+QpdGpDIC0N9O246k0qpeh5BNcsReiRUbTC+Z+5+J+uvkzpLkzOgPIugGyjcCxu5OiQUryHgGu0ItM9+GywmIeeN5s+ng+SpkeOgyALEmcccd72PEmUXxN/0jADE6ewYeeD1GaQN+XkwmqU1+GXIOD2ADcciFRf65rAk5rPRJeA3PACv+Ihfpy5NbHd36LyQn4vz0r4U2ULaMn0tAbAFF/rqt57Ti2ey4UCiiEe0Sg3QS8shsv2RxACfcdKPMS3iREHxnEehkGQNmV5dhOvCXtK64w83QqfYSb0GEFSDsiEULAUIf8FztdPR+S9c+0SuqukmMAlMQRd6xHa9Kz8fLBd8mPoJlcLBUsFO3llJ0AS/kXpncQZcnlqTJLMwCClpy8CcRsxx38aUUFyfoSH4EoPo/dw/phR/awc53ZXw5CEff0AjKeT6vM1so75BmAuxN00B0L4y31HL3WKvqIUGKfuXcFJT4QybgBXyQqxJbZvl6ihD9hzgfF+TINIOsGqCYx2baTSAKarBc+gh3ehcNbLOGATuQYiCsB9H2xz/fTlPqliy1NlGwAALOpyEPumaCjyRJ1XaKJWkBU+oDP+QI6dp1384CKvvhzSYCP6w7RmCYVT0s3ANcNJOhMwG5NMpu5iHkLQuU9wOI4C2F++Z2+KM3rtamAcd1l53xUtE7MjKgwAIA5rQ5dNNDhjv9F+HriFh5BTy4+ry9Xvges+web7VGwhM5Wqq1fkbzSqJsUGQBxaqChJQ0CeQ5L5BWQ+XyAqzNYuNyDIJ+UyzJkfT+R80+o0tM4I6LMAAAatzTTHArd1EBPdxJnDWBz+kTyHYhIP7Kpo91gfHLYTfnR5HzU6SicF1FpAC5/jES6y+2ed2yno8lCWXcWt2/zsR8SCWDLD9ikHqxG7B77aLb+DoVKKhOYsbHnK3hOqnHwmawbYAJCAY8fF+8RiXgHyT2jqpBR6Owm8v1qAr9cC8SV7NzoiWqemEbLtW9Grt3RC8BtykK9PsAX2Z8n5NXfAXMveZ/gnvqdGgr8cvHfFdzc+MNVPfdsKvmxbIYwSx7CyzWA3OUc2xPwAW6A1giA3UaSzURx/7wtoBJ3HB7hMUnd8y+h0xpw7NZ2gWgrevQHpA4EYofP14k9j5EF/gnFeglXRjD8aqzCl0DmBlxFtY5eLJWLSvLzCh7+oW4WVxgSnQzpav2quyNPezqC48gRSl8H2Sxwx3acVBpEimxiyrbvaxBFa8ZMrSEXJnR2E9X6lStljLwiIsTN56p9LfU0GUKnj0bahQ/n4FP4gNYERWKf2NCnJFXgT9PeUQamjo8E4ekTFb8eQklnlzXgSfGCSLTfEpK5hCIfTJTY1dxDEvg3LFIumvfEqZFgDLlV9Uui3AlcJjHg45sA9QVM4AD8xD6uJ4Cs3Ddvi3L13BsOjxTH+FHKTWAOlQyhyyROdQKTx8U5H0LVTp5Q6N0EemkauzMahizefVikJIw+DdRjSzOdG3DPBChzA/MFAXpvXNwAVhONmJ+OWSonHjw0Uip+dq4GE6B1A2lE24MTaWGHuuBzfgtSnimHpLW3WYN4/rCfDY6UgV89ocECoJGqqcRljnTXB6h3gUjo1xJxviAKRM5fxzCtW0+JlIvD79JhAvAnKr0Jx7YTSUzgC0ob48LGjFY25xua6pdp1TBY9fwjI5XglJlaTMCa30EbDAQIeFicmKeF8kazHH+Kat8iDVrpkypbfheHnK/FBKCdiEDmkgZ6UbkugQSkaLaPm/In6Oudr35oyrkTboqEwWWX6jEBKiqxGw+6nWVWFKkMokQh4JjA1gKKvT+T0qCLe+K0QZGwGD3xXD02kCTSHHFsu7VerAgW5dhD/i+nWyimtkrs7RJj7PgICYbcp8kEaDRH3INbTzYexBu90Gpw7mhI0uGT0TI27+7xQyNUGHLlvXpMAOZSnQtz1CHE8/PJvtz/96m6hI37UzqG5Mw8LEKKoYfdoMkEqM6F2TIBq+AnKhJCv7BD+K1fixb21JCRnyAePGmEHhOgYo7YttPdZfXn+IAb8+7zCuleknLvvPkartfIByOScOp5d2tyA4sTRKdCu6e7l9f4YY6EnU0kg/t0lHsAbrgiIhOHzdRkAnNaqc4EjtPaWw+icn/9gm7btgnWX0e5B+D+QyKycfjZNb4TxNwF7mlO9dYzKYD6ZCrhdp9SdHZrmZU84ombIipw6pVjNbkBotRAdoVdKmm8ozmRaE646HCytz3J6us59p143pCIMmg7ExDKkWZDgjwcouYOXce+Gw6LqMWRk36syQYoRxRknQGRmIfGY9+osy+LqMfo+3TtBHNSmVh1QjnF18U504ZENOGKWzWZgNUUr77Vz+Sn9qmccTPplIhOjJ44VVdqoLu6lj/eYqlf/lETRkd0Y/AZugJCyplV4RneFniHDSt5O+fgwZGqgLYkMV1HAU1np3fsmPQBR+dPiVQPTj3vRG0Bofbl39oOnoGjQeqUhG8nPR2pLugrF1qUQ0zLR98A7Lznx8SGCd/7VCzOnfirSBXiyEmaTIA2NVAWcmP7OH1htgmZapiRFY2OnTY4UqUYfdu92naCBh2B/2zP8uNNBSBoTKnsESuqPuVX7k5wmiYTaJyveCfItfd4vb8lGicqEKjnHhJ/T/a/EZMui1Q9Dn9ilCYbWKIwNZBv78npk0KgyjTep4iNGBRKUUdh6sTRkZrAoIPP0bYTOCpWP9PWydz96EAazp3jmkXI92Ct7Dc8GKkhHKKNP9YiPRhwWhcW7n6fpJBoiDw3kZAfagDisQSulU3923siNYYhB/9eVzDQLHP5cwMccud+K2DapGAzAIE4gVC45LQzhkZqETdPGnBngnzG30cu5yYK+L/M6tNx/UggULbs+1rV5XzK6TK/TVOGsFFKuTA/vyMaZYJ/z6JjcR07kJC1HsTv9z8wqjpzPmWcC7XVirqod4JMir37rSgWA0LgsFp0OCkmWe9+Ppagt+8ArhW1kx4LE52+Y59IT5QJ5ABLEGG7PqJKf/qDkQGCU6eN1EUmJ0v7+At+Ij1RprsYVZrPDZhANEo93mLESUdGBhKm3B+t4WPhvC7RsZ+ZMIhmBdhiTl9fEi9W4ZlkM/K8IZGBhtET9RQKwtPH+kn+USgU5LnJ8thRn4kSBerjvqFHfR/vmhKJDI0MPAzV1VcUqsc40cWFfhY+OQabNoLMJIZoFFEwy//f1Ik3RQYu7pmgR2ugvUJ1ejbpGzg1mtvO/dwAQMVIGPM4/cHBkYGNwQ+erodB+EymgrRPmt37EZqHJRhdiSlO41OOcv+OOOmyyIGAp88eVQPBQKaVD/wxhbGot9Mc0AlUfmUSbspR//uJV54aOVAwaPwdepoLUyXaQCYx30/z5bk5gE8kYe92EJT+2BLhsAeHDo0cSLjspBFRUPtWsg00N80WlHtBXOLhYgII+BrjTqqL4qvMDUy7W4cFACxZFGADHYsW5zs8ckw/blKUYKQYpjpkITNnwG9OI544PHKA4oqZqpoociuZCwm3pLp5K0i0LC6oOvj2dNHI0SJHerT6zzgPja19VUEgO3tE4R6T/NHy+QHXDJLzm3Lo6vQqejAFXYsZNwXMBDkBK4ipDWExxP1TIgc6Tp12t+x73++JoWhSOgrs9EjByGBAhs1EuUmUFiZM676dWCskP9kZwim3Bsx7C//O3o9CC/DEC0jsFjCHFgJGGKPdQu6fe8MZQ83a5wsFt43lpvQRfsLwdvOEDtEbv2b85PAAwq/4eJD/zQdKzqcMN3DF+d6ZnpSf4OND8YVHIz4IHiXGVPRByA3Jf2HkeaeaFedx020nBpJpKngEHR0c0Lbp5WUAPmaKjwIBmzgO/C6Qs5LTDzO+P6BeiIZulT2C53AKqVv2Y2AMz/fsoGVBAd2nEICcf4hZ50A3MGGqt5buW7CSH8GnwAsnS1tF50oizH28Hoy0dHr3oBGXHm6WuCjOuAGwaMuKCtcLfyRoLBBX00PI+iCaGi5YdZ79xTzTuebYV2q98IlRAYRqP6mOewTw7AxqGxY3OiAgucMe/CHKswAZdqfHmmCmOfaVVS8chtGqvIO+/f4aBDPiwPcfk9HD6jqeu58fOYZPlkRjB78LkqPgPrBx86UW2mkhOluhW7OQjo2eD7jhMWx6X8QHKUL9GzgEb8VZ4ivvBr4GywdcaB4ugKjHNXJxX0DDCy6d4Gn8BPH04ej9Ju4PkR6ayU54wkkZ/tw7V4IFtKqD0vbw4LHw9NywQS7X5GP7jPpb4/tD1gufGBVlna+Qb80f2/AOXsAVGUShAUTFTT1ss5fv+caalB+BFxg07RzkpgM8+Y4e2IXBgG+eIMPtEwyS432MIJ6E6Gkm5UeFKed7Y3rmokOUK7oBnv3xkTuDubrcL/J6nQBub/7nRpz0dMSsPx3ucVMDmIQOoAd2KxrUgS0U4sHGCXJBHftFXiMoCmOnGd9PvhOMH4Z32aIsayy9Y4n0uIKPeXyqDwJrShA15R5JOOTSESjfBjn9AXJHM5s73+GJsX/RYjBP/PX8enPsk5kamDZSMA2cW1h/QgjYsz/C1mUfFgm3idQcs23d5tinICDE5BmAZ30wSyRKKAkqwUGSHphzcd+m3jfELJB83DThXPa4h4mw8SvOpZOAL/L5TxWA1gP5XH/2u0cePNgsjiKM/z1y4OOle7ByjoVJtHFyD5bAuhjdvwIRAYaZyE8pbp40IiogfVrYmHBxDQfwL3A/AOLioTXi0iPNkigPCK8cWaQpg73xAaXnC12JqIDA/YQheerCFbcCewoDPHgHNNkv4hGBsLEE8Qmnme4ejRidDQhFqT6RhAtwZwNUvgN4eijHN5l5s9n69WLQwecEVH2wCrAlrgVAVEAD82wVXuapSfpUR2rgVpEkA1/BAV6e0R/ag08CEOcK9X3viCfuMde+WlIDE6cCP7EJP7NZoiYR9EyIyQFmPxuIWn41jZ/dISaKMPOc+GwhiOuDaMovescV5opXHY68dAROCvXsAd56HlNQAl/sBx7L8H8etaJ3nRIxxf6qTA2cN5IpCgDaOWYV6QMAYc+ZFbVgkkn6VHNAeL9PpsHyqnMUesmEat/8FsLqRJxkIr8qx+EnYZ1cngI/uy2IBvogB8cRE0x3Vw3gV7dN5RpGgF9PYPmCPDvEbxaj7jMp35rAUDdJHCAGwEu1YT3kwDCERp03yFzaGsLoiecCussDltD37QdIJgBG3TfExP01hsHT7uYrdwEKYpY3Beg//Y+YYJx/Te4FZwwDnuSBxfsQFQ6AjlojnjChX83iipkW2/IjPO9Z6C4AlxqeZ03jsktBmAYCRNmjEAO6j48yd3/tnwn6j4X9ezuIW8I5Scd7rzR7/8DA+JHiTiEsEMz+e4MRdhhAmDIT0wZA20Gzj5w40eR8B1owMGGsgDvOiUOOmGTKvQMSR04cCzx5nGERRWf+zOT8Bi4OmTAS2/dzH845+zCT8hvouOng+0fyTNEoDDv7wdFm8Q8YK5hy8IT7Tx85NfrjqSPvuOuk+x48xXT2GRgYGBgYGBgYGBgYGBgYGBgYGBgYGBgYGBgYGBgYGBgYGBgYGBgYGBgYGBgYGBgYGBgYGBgYGBgYGBgYGBgYGBgYGBgYGBgYGBgYGBgYGBgYaMb/B7yGrOBVbLy9AAAAAElFTkSuQmCC;" parent="1" vertex="1">
          <mxGeometry x="324" y="384.69" width="30" height="30" as="geometry" />
        </mxCell>
      </root>
    </mxGraphModel>
  </diagram>
</mxfile>
